<?xml version="1.0" encoding="UTF-8" standalone="no"?>
<svg
   xmlns:dc="http://purl.org/dc/elements/1.1/"
   xmlns:cc="http://creativecommons.org/ns#"
   xmlns:rdf="http://www.w3.org/1999/02/22-rdf-syntax-ns#"
   xmlns:svg="http://www.w3.org/2000/svg"
   xmlns="http://www.w3.org/2000/svg"
   xmlns:sodipodi="http://sodipodi.sourceforge.net/DTD/sodipodi-0.dtd"
   xmlns:inkscape="http://www.inkscape.org/namespaces/inkscape"
   viewBox="-768 -375 1536 750"
   width="1536"
   height="750"
   style="background-color: rgb(255, 255, 255);"
   version="1.1"
   id="svg458"
   sodipodi:docname="decoder.svg"
   inkscape:version="1.0.2-2 (e86c870879, 2021-01-15)">
  <metadata
     id="metadata464">
    <rdf:RDF>
      <cc:Work
         rdf:about="">
        <dc:format>image/svg+xml</dc:format>
        <dc:type
           rdf:resource="http://purl.org/dc/dcmitype/StillImage" />
      </cc:Work>
    </rdf:RDF>
  </metadata>
  <defs
     id="defs462" />
  <sodipodi:namedview
     pagecolor="#ffffff"
     bordercolor="#666666"
     borderopacity="1"
     objecttolerance="10"
     gridtolerance="10"
     guidetolerance="10"
     inkscape:pageopacity="0"
     inkscape:pageshadow="2"
     inkscape:window-width="1920"
     inkscape:window-height="1001"
     id="namedview460"
     showgrid="false"
     inkscape:zoom="0.79101562"
     inkscape:cx="768"
     inkscape:cy="375"
     inkscape:window-x="-9"
     inkscape:window-y="-9"
     inkscape:window-maximized="1"
     inkscape:current-layer="svg458" />
  <path
     d="m -689.12203,-150.45431 -37.84999,-5.3011 m 0,-66.0442 v 66.0442 m 0,0 -25.40615,24.18631"
     style="fill:none;stroke:#000000;stroke-width:1.67857;stroke-linecap:round"
     id="path2" />
  <path
     d="m -689.12203,-150.45431 -37.84999,-5.3011 v -66.0442 z"
     style="fill:#eeeeee;fill-opacity:0.4;stroke-width:1.67857"
     id="path4" />
  <path
     d="m -689.12203,-216.4985 v 66.04419 m 0,0 -25.40615,24.18631 m 348.31383,21.0388 -302.79988,-42.4089 m 0,-66.04419 v 66.04419 m 0,0 -25.40614,24.18632"
     style="fill:none;stroke:#000000;stroke-width:1.67857;stroke-linecap:round"
     id="path6" />
  <path
     d="m -752.37817,-131.5691 25.40615,-24.18631 37.84999,5.3011 z"
     style="fill:#eeeeee;fill-opacity:0.4;stroke-width:1.67857"
     id="path8" />
  <path
     d="m -689.12203,-216.4985 -37.84999,-5.30111 m 0,0 -25.40615,24.18632"
     style="fill:none;stroke:#000000;stroke-width:1.67857;stroke-linecap:round"
     id="path10" />
  <path
     d="m -689.12203,-216.4985 v 66.04419 l -37.84999,-71.3453 z m -37.84999,-5.30111 v 66.0442 l -25.40615,-41.85788 z"
     style="fill:#eeeeee;fill-opacity:0.4;stroke-width:1.67857"
     id="path12" />
  <path
     d="m -689.12203,-216.4985 -25.40615,24.18631"
     style="fill:none;stroke:#000000;stroke-width:1.67857;stroke-linecap:round"
     id="path14" />
  <path
     d="m -714.52818,-126.268 25.40615,-24.18631 v -66.04419 z"
     style="fill:#eeeeee;fill-opacity:0.4;stroke-width:1.67857"
     id="path16" />
  <path
     d="m -366.21435,-171.27341 -302.79988,-42.40888 m 0,0 -25.40614,24.18632"
     style="fill:none;stroke:#000000;stroke-width:1.67857;stroke-linecap:round"
     id="path18" />
  <path
     d="m -726.97202,-155.75541 -25.40615,24.18631 v -66.04419 z m 12.44384,29.48741 -37.84999,-5.3011 63.25614,-18.88521 z m 0,-66.04419 25.40615,-24.18631 -37.84999,-5.30111 z"
     style="fill:#eeeeee;fill-opacity:0.4;stroke-width:1.67857"
     id="path20" />
  <path
     d="m -744.61639,-213.30754 h 6.33416 v 3.16709 h -6.33416 z"
     style="fill:#ffffff;stroke-width:1.67857"
     id="path22" />
  <path
     d="m -669.01423,-213.68229 v 66.04419 l -25.40614,-41.85787 z"
     style="fill:#eeeeee;fill-opacity:0.4;stroke-width:1.67857"
     id="path24" />
  <path
     d="m -752.37817,-197.61329 v 66.04419 m 0,0 37.84999,5.3011 m 4.10945,-31.75062 -37.85,-5.3011 m 0,-0.58968 v 0.58968 m 0,0 -0.22684,0.21595 m 38.07684,4.49547 -37.85,-5.3011 m 0,0 -0.22684,0.21595"
     style="fill:none;stroke:#000000;stroke-width:1.67857;stroke-linecap:round"
     id="path26" />
  <path
     d="m -748.26873,-163.9094 v 0.58968 l -0.22684,-0.37373 z m 0,0.58968 -0.22684,0.21595 v -0.58968 z"
     style="fill:#99ddff;fill-opacity:0.4;stroke-width:1.67857"
     id="path28" />
  <path
     d="m -748.49557,-163.69345 v 0.58968 m 0,0 37.84998,5.3011 m -37.84998,-5.89078 37.84998,5.3011 m 334.35035,15.4113 -302.79989,-42.40889 m 0,-0.58968 v 0.58968 m 0,0 -0.22683,0.21595 m 303.02672,41.60325 -302.79989,-42.40888 m 0,0 -0.22683,0.21595"
     style="fill:none;stroke:#000000;stroke-width:1.67857;stroke-linecap:round"
     id="path30" />
  <path
     d="m -679.09513,-185.97962 v 0.58968 l -0.22683,-0.37373 z m 0,0.58968 -0.22683,0.21595 v -0.58968 z"
     style="fill:#99ddff;fill-opacity:0.4;stroke-width:1.67857"
     id="path32" />
  <path
     d="m -679.32196,-185.76367 v 0.58968 m 0,0 302.79989,42.4089 m -302.79989,-42.99858 302.79989,42.40888"
     style="fill:none;stroke:#000000;stroke-width:1.67857;stroke-linecap:round"
     id="path34" />
  <path
     d="m -366.21435,-105.2292 -302.79988,-42.4089 v -66.04419 z"
     style="fill:#eeeeee;fill-opacity:0.4;stroke-width:1.67857"
     id="path36" />
  <path
     d="m -710.41873,-158.01862 -37.85,-5.3011 v -0.58968 z m -38.07684,-5.08515 0.22684,-0.21595 37.85,5.3011 z m 0,-0.58968 37.84998,5.3011 -37.62314,-5.51705 z m 0,0 v 0.58968 l 37.84998,4.71142 z"
     style="fill:#99ddff;fill-opacity:0.4;stroke-width:1.67857"
     id="path38" />
  <path
     d="m -737.07397,-128.89083 h 6.3342 v 3.1671 h -6.3342 z"
     style="fill:#ffffff;stroke-width:1.67857"
     id="path40" />
  <path
     d="m -669.01423,-147.6381 -25.40614,24.18632 v -66.04419 z m -83.36394,-49.97519 37.84999,5.3011 -12.44384,-29.48742 z"
     style="fill:#eeeeee;fill-opacity:0.4;stroke-width:1.67857"
     id="path42" />
  <path
     d="m -710.41873,-158.6083 v 0.58968 l -37.85,-5.89078 z"
     style="fill:#99ddff;fill-opacity:0.4;stroke-width:1.67857"
     id="path44" />
  <path
     d="m -714.52818,-192.31219 v 66.04419 l 25.40615,-90.2305 z"
     style="fill:#eeeeee;fill-opacity:0.4;stroke-width:1.67857"
     id="path46" />
  <path
     d="m -710.64559,-157.80267 -37.84998,-5.3011 38.07684,5.08515 z m 0,-0.58968 0.22686,-0.21595 -37.85,-5.3011 z m -37.84998,-4.71142 37.84998,5.3011 v -0.58968 z"
     style="fill:#99ddff;fill-opacity:0.4;stroke-width:1.67857"
     id="path48" />
  <path
     d="M -714.52818,-192.31219 V -126.268"
     style="fill:none;stroke:#000000;stroke-width:1.67857;stroke-linecap:round"
     id="path50" />
  <path
     d="m -758,-165.77538 h 6.33419 v 3.16709 H -758 Z"
     style="fill:#ffffff;stroke-width:1.67857"
     id="path52" />
  <path
     d="m -710.41873,-158.6083 v 0.58968 m 0,0 -0.22686,0.21595 m 0.22686,-0.80563 -0.22686,0.21595"
     style="fill:none;stroke:#000000;stroke-width:1.67857;stroke-linecap:round"
     id="path54" />
  <path
     d="m -710.64559,-157.80267 0.22686,-0.21595 v -0.58968 z"
     style="fill:#99ddff;fill-opacity:0.4;stroke-width:1.67857"
     id="path56" />
  <path
     d="m -710.53216,-158.20549 z m 0,0 z"
     style="fill:#ffbbbb;fill-opacity:0.4;stroke-width:1.67857"
     id="path58" />
  <path
     d="m -710.64559,-158.39235 v 0.58968 l 0.22686,-0.80563 z"
     style="fill:#99ddff;fill-opacity:0.4;stroke-width:1.67857"
     id="path60" />
  <path
     d="m -710.64559,-158.39235 v 0.58968"
     style="fill:none;stroke:#000000;stroke-width:1.67857;stroke-linecap:round"
     id="path62" />
  <path
     d="m -694.42037,-123.45178 25.40614,-24.18632 302.79988,42.4089 z"
     style="fill:#eeeeee;fill-opacity:0.4;stroke-width:1.67857"
     id="path64" />
  <path
     d="m -686.65861,-205.19021 h 6.33418 v 3.16709 h -6.33418 z"
     style="fill:#ffffff;stroke-width:1.67857"
     id="path66" />
  <path
     d="m -710.53216,-158.20549 v 0 l 20.10781,2.81621 z m 0,0 v 0 l 20.10781,2.81621 z m 0,0 v 0 l 20.10781,2.81621 z m 0,0 v 0 l 20.10781,2.81621 z"
     style="fill:#ffbbbb;fill-opacity:0.4;stroke-width:1.67857"
     id="path68" />
  <path
     d="m -752.37817,-131.5691 37.84999,5.3011 v -66.04419 z"
     style="fill:#eeeeee;fill-opacity:0.4;stroke-width:1.67857"
     id="path70" />
  <path
     d="m -694.42037,-189.49597 v 66.04419 m 0,0 302.79986,42.408891"
     style="fill:none;stroke:#000000;stroke-width:1.67857;stroke-linecap:round"
     id="path72" />
  <path
     d="m -752.37817,-197.61329 v 66.04419 l 37.84999,-60.74309 z"
     style="fill:#eeeeee;fill-opacity:0.4;stroke-width:1.67857"
     id="path74" />
  <path
     d="m -752.37817,-197.61329 37.84999,5.3011"
     style="fill:none;stroke:#000000;stroke-width:1.67857;stroke-linecap:round"
     id="path76" />
  <path
     d="m -700.04219,-157.65807 h 6.33416 v 3.1671 h -6.33416 z"
     style="fill:#ffffff;stroke-width:1.67857"
     id="path78" />
  <path
     d="m -376.29524,-142.98105 -302.79989,-42.40889 v -0.58968 z m -303.02672,-42.19294 0.22683,-0.21595 302.79989,42.40889 z m 0,-0.58968 302.79989,42.40888 -302.57306,-42.62483 z m 0,0 v 0.58968 l 302.79989,41.8192 z"
     style="fill:#99ddff;fill-opacity:0.4;stroke-width:1.67857"
     id="path80" />
  <path
     d="m -694.42037,-189.49597 302.79986,42.40886"
     style="fill:none;stroke:#000000;stroke-width:1.67857;stroke-linecap:round"
     id="path82" />
  <path
     d="m -366.21435,-171.27341 v 66.04421 l -302.79988,-108.45309 z m -328.20602,-18.22256 302.79986,42.40886 -277.39372,-66.59518 z"
     style="fill:#eeeeee;fill-opacity:0.4;stroke-width:1.67857"
     id="path84" />
  <path
     d="m -366.21435,-171.27341 v 66.04421 m 0,0 -25.40616,24.186311"
     style="fill:none;stroke:#000000;stroke-width:1.67857;stroke-linecap:round"
     id="path86" />
  <path
     d="m -391.62051,-81.042889 -302.79986,-42.408891 328.20602,18.22258 z M -694.42037,-189.49597 v 66.04419 l 302.79986,-23.63533 z"
     style="fill:#eeeeee;fill-opacity:0.4;stroke-width:1.67857"
     id="path88" />
  <path
     d="m 619.27869,166.84342 -18.925,-2.65055 m 0,-528.35358 v 528.35358 m 0,0 -203.24923,193.49053"
     style="fill:none;stroke:#000000;stroke-width:1.67857;stroke-linecap:round"
     id="path90" />
  <path
     d="m -376.29524,-143.57074 v 0.58969 l -302.79989,-42.99857 z"
     style="fill:#99ddff;fill-opacity:0.4;stroke-width:1.67857"
     id="path92" />
  <path
     d="M -43.306678,-60.004107 -346.10655,-102.41301 m 0,-66.04418 v 66.04418 m 0,0 -25.40615,24.186321"
     style="fill:none;stroke:#000000;stroke-width:1.67857;stroke-linecap:round"
     id="path94" />
  <path
     d="m -376.52207,-142.76509 -302.79989,-42.4089 303.02672,42.19294 z m 0,-0.5897 0.22683,-0.21595 -302.79989,-42.40888 z m -302.79989,-41.8192 302.79989,42.4089 v -0.5897 z"
     style="fill:#99ddff;fill-opacity:0.4;stroke-width:1.67857"
     id="path96" />
  <path
     d="m -546.64122,-102.21961 h 6.33417 v 3.167067 h -6.33417 z"
     style="fill:#ffffff;stroke-width:1.67857"
     id="path98" />
  <path
     d="m -391.62051,-147.08711 25.40616,-24.1863 -302.79988,-42.40888 z"
     style="fill:#eeeeee;fill-opacity:0.4;stroke-width:1.67857"
     id="path100" />
  <path
     d="m 619.27869,-361.51015 v 528.35357 m 0,0 -203.24923,193.49052 m 225.13125,-190.42581 -1.77422,-0.2485 m 0,-528.35356 v 528.35356 m 0,0 -203.24923,193.49052 m 205.02345,-721.5956 v 528.35358 m 0,0 -203.24923,193.49052 m -804.12583,-534.67206 -25.40616,24.1863"
     style="fill:none;stroke:#000000;stroke-width:1.67857;stroke-linecap:round"
     id="path102" />
  <path
     d="m -391.62051,-81.042889 25.40616,-24.186311 v -66.04421 z"
     style="fill:#eeeeee;fill-opacity:0.4;stroke-width:1.67857"
     id="path104" />
  <path
     d="m -43.306678,-126.04831 -302.799872,-42.40888 m 0,0 -25.40615,24.18629"
     style="fill:none;stroke:#000000;stroke-width:1.67857;stroke-linecap:round"
     id="path106" />
  <path
     d="m -694.42037,-123.45178 302.79986,42.408891 v -66.044221 z"
     style="fill:#eeeeee;fill-opacity:0.4;stroke-width:1.67857"
     id="path108" />
  <path
     d="m -376.29524,-143.57074 v 0.58969 m 0,0 -0.22683,0.21596 m 0.22683,-0.80565 -0.22683,0.21595"
     style="fill:none;stroke:#000000;stroke-width:1.67857;stroke-linecap:round"
     id="path110" />
  <path
     d="m -376.52207,-142.76509 0.22683,-0.21596 v -0.58969 z"
     style="fill:#99ddff;fill-opacity:0.4;stroke-width:1.67857"
     id="path112" />
  <path
     d="m -376.40867,-143.16793 z m 0,0 z"
     style="fill:#ffbbbb;fill-opacity:0.4;stroke-width:1.67857"
     id="path114" />
  <path
     d="m -376.52207,-143.35479 v 0.5897 l 0.22683,-0.80565 z"
     style="fill:#99ddff;fill-opacity:0.4;stroke-width:1.67857"
     id="path116" />
  <path
     d="m -376.52207,-143.35479 v 0.5897"
     style="fill:none;stroke:#000000;stroke-width:1.67857;stroke-linecap:round"
     id="path118" />
  <path
     d="m -346.10655,-168.45719 v 66.04418 l -25.40615,-41.85789 z"
     style="fill:#eeeeee;fill-opacity:0.4;stroke-width:1.67857"
     id="path120" />
  <path
     d="m -376.40867,-143.16793 v 0 l 20.10781,2.81622 z m 0,0 v 0 l 20.10781,2.81622 z m 0,0 v 0 l 20.10781,2.81622 z m 0,0 v 0 l 20.10781,2.81622 z"
     style="fill:#ffbbbb;fill-opacity:0.4;stroke-width:1.67857"
     id="path122" />
  <path
     d="M -43.306678,-60.004107 -346.10655,-102.41301 v -66.04418 z"
     style="fill:#eeeeee;fill-opacity:0.4;stroke-width:1.67857"
     id="path124" />
  <path
     d="M -60.661205,-52.683366 -363.4611,-95.092234 m 0,-0.58968 v 0.58968 m 0,0 -0.22683,0.215945 M -60.661205,-53.273046 -363.4611,-95.681914 m 0,0 -0.22683,0.215945"
     style="fill:none;stroke:#000000;stroke-width:1.67857;stroke-linecap:round"
     id="path126" />
  <path
     d="m -363.4611,-95.681914 v 0.58968 l -0.22683,-0.373735 z m 0,0.58968 -0.22683,0.215945 v -0.58968 z"
     style="fill:#99ddff;fill-opacity:0.4;stroke-width:1.67857"
     id="path128" />
  <path
     d="m -363.68793,-95.465969 v 0.58968 m 0,0 302.799881,42.408873 m -302.799881,-42.998553 302.799881,42.408873"
     style="fill:none;stroke:#000000;stroke-width:1.67857;stroke-linecap:round"
     id="path130" />
  <path
     d="m -346.10655,-102.41301 -25.40615,24.186321 V -144.2709 Z m -45.51396,-44.6741 v 66.044221 l 25.40616,-90.230521 z"
     style="fill:#eeeeee;fill-opacity:0.4;stroke-width:1.67857"
     id="path132" />
  <path
     d="m -391.62051,-147.08711 v 66.044221"
     style="fill:none;stroke:#000000;stroke-width:1.67857;stroke-linecap:round"
     id="path134" />
  <path
     d="m -371.5127,-78.226689 25.40615,-24.186321 302.799872,42.408903 z"
     style="fill:#eeeeee;fill-opacity:0.4;stroke-width:1.67857"
     id="path136" />
  <path
     d="m -363.75094,-159.9651 h 6.33419 v 3.16707 h -6.33419 z"
     style="fill:#ffffff;stroke-width:1.67857"
     id="path138" />
  <path
     d="m -371.5127,-144.2709 v 66.044211 m 0,0 302.799868,42.408885"
     style="fill:none;stroke:#000000;stroke-width:1.67857;stroke-linecap:round"
     id="path140" />
  <path
     d="m 619.27869,166.84342 -18.925,-2.65055 v -528.35358 z"
     style="fill:#eeeeee;fill-opacity:0.4;stroke-width:1.67857"
     id="path142" />
  <path
     d="m 65.204169,-25.656744 -75.699957,-10.602214 m 0,-132.088392 v 132.088392 m 0,0 -50.812314,48.372624"
     style="fill:none;stroke:#000000;stroke-width:1.67857;stroke-linecap:round"
     id="path144" />
  <path
     d="m -377.13452,-112.43297 h 6.33416 v 3.16709 h -6.33416 z"
     style="fill:#ffffff;stroke-width:1.67857"
     id="path146" />
  <path
     d="M -60.661205,-52.683366 -363.4611,-95.092234 v -0.58968 z m -303.026725,-42.192923 0.22683,-0.215945 302.799895,42.408868 z m 0,-0.58968 302.799881,42.408873 -302.573051,-42.624818 z m 0,0 v 0.58968 l 302.799881,41.819193 z"
     style="fill:#99ddff;fill-opacity:0.4;stroke-width:1.67857"
     id="path148" />
  <path
     d="m 641.16071,169.90813 -1.77422,-0.2485 v -528.35356 z"
     style="fill:#eeeeee;fill-opacity:0.4;stroke-width:1.67857"
     id="path150" />
  <path
     d="m -371.5127,-144.2709 302.799868,42.40891"
     style="fill:none;stroke:#000000;stroke-width:1.67857;stroke-linecap:round"
     id="path152" />
  <path
     d="m -43.306678,-126.04831 v 66.044203 L -346.10655,-168.45719 Z M 65.204169,-25.656744 -10.495788,-36.258958 V -168.34735 Z"
     style="fill:#eeeeee;fill-opacity:0.4;stroke-width:1.67857"
     id="path154" />
  <path
     d="m 65.204169,-157.74513 v 132.088386 m 0,0 -50.812311,48.372627"
     style="fill:none;stroke:#000000;stroke-width:1.67857;stroke-linecap:round"
     id="path156" />
  <path
     d="m -371.5127,-144.2709 302.799868,42.40891 -277.393718,-66.5952 z"
     style="fill:#eeeeee;fill-opacity:0.4;stroke-width:1.67857"
     id="path158" />
  <path
     d="M 236.71192,-1.6360899 85.311977,-22.840532 m 0,-132.088378 v 132.088378 m 0,0 -50.812311,48.372635 M -43.306678,-126.04831 v 66.044203 m 0,0 -25.406154,24.186303"
     style="fill:none;stroke:#000000;stroke-width:1.67857;stroke-linecap:round"
     id="path160" />
  <path
     d="M -68.712832,-35.817804 -371.5127,-78.226689 -43.306678,-60.004107 Z"
     style="fill:#eeeeee;fill-opacity:0.4;stroke-width:1.67857"
     id="path162" />
  <path
     d="m 587.60934,100.00879 -18.92499,-2.650559 m 0,-0.58968 v 0.58968 m 0,0 -0.22683,0.215954 m 19.15182,1.84492 -18.92499,-2.650554 m 0,0 -0.22683,0.215954"
     style="fill:none;stroke:#000000;stroke-width:1.67857;stroke-linecap:round"
     id="path164" />
  <path
     d="m 568.68435,96.768551 v 0.58968 l -0.22683,-0.373726 z"
     style="fill:#99ddff;fill-opacity:0.4;stroke-width:1.67857"
     id="path166" />
  <path
     d="m -371.5127,-144.2709 v 66.044211 l 302.799868,-23.635301 z"
     style="fill:#eeeeee;fill-opacity:0.4;stroke-width:1.67857"
     id="path168" />
  <path
     d="m 568.68435,97.358231 -0.22683,0.215954 v -0.58968 z"
     style="fill:#99ddff;fill-opacity:0.4;stroke-width:1.67857"
     id="path170" />
  <path
     d="m 568.45752,96.984505 v 0.58968 m 0,0 18.92498,2.650555 m -18.92498,-3.240235 18.92498,2.650555"
     style="fill:none;stroke:#000000;stroke-width:1.67857;stroke-linecap:round"
     id="path172" />
  <path
     d="m -223.73354,-56.994527 h 6.3342 v 3.167095 h -6.3342 z"
     style="fill:#ffffff;stroke-width:1.67857"
     id="path174" />
  <path
     d="m 587.60934,100.00879 -18.92499,-2.650559 v -0.58968 z m -19.15182,-2.434605 0.22683,-0.215954 18.92499,2.650559 z m 0,-0.58968 18.92498,2.650555 -18.69815,-2.866509 z m 0,0 v 0.58968 L 587.3825,99.63506 Z M -60.661205,-53.273046 v 0.58968 L -363.4611,-95.681914 Z m -0.226844,0.80563 -302.799881,-42.408873 303.026725,42.192923 z m 0,-0.58968 0.226844,-0.21595 -302.799895,-42.408868 z m -302.799881,-41.819193 302.799881,42.408873 v -0.58968 z"
     style="fill:#99ddff;fill-opacity:0.4;stroke-width:1.67857"
     id="path176" />
  <path
     d="m -68.712832,-101.86199 25.406154,-24.18632 -302.799872,-42.40888 z"
     style="fill:#eeeeee;fill-opacity:0.4;stroke-width:1.67857"
     id="path178" />
  <path
     d="m 587.60934,99.419105 v 0.589685 l -18.92499,-3.240239 z m -0.22684,0.805635 -18.92498,-2.650555 19.15182,2.434605 z m 0,-0.58968 0.22684,-0.215955 -18.92499,-2.650554 z m -18.92498,-2.060875 18.92498,2.650555 v -0.58968 z"
     style="fill:#99ddff;fill-opacity:0.4;stroke-width:1.67857"
     id="path180" />
  <path
     d="m 587.60934,99.419105 v 0.589685 m 0,0 -0.22684,0.21595 m 0.22684,-0.805635 -0.22684,0.215955"
     style="fill:none;stroke:#000000;stroke-width:1.67857;stroke-linecap:round"
     id="path182" />
  <path
     d="m -61.308102,12.113666 50.812314,-48.372624 75.699957,10.602214 z"
     style="fill:#eeeeee;fill-opacity:0.4;stroke-width:1.67857"
     id="path184" />
  <path
     d="m 587.3825,100.22474 0.22684,-0.21595 v -0.589685 z"
     style="fill:#99ddff;fill-opacity:0.4;stroke-width:1.67857"
     id="path186" />
  <path
     d="m 587.49591,99.821923 z m 0,0 z"
     style="fill:#ffbbbb;fill-opacity:0.4;stroke-width:1.67857"
     id="path188" />
  <path
     d="m 587.3825,99.63506 v 0.58968 l 0.22684,-0.805635 z"
     style="fill:#99ddff;fill-opacity:0.4;stroke-width:1.67857"
     id="path190" />
  <path
     d="m 587.3825,99.63506 v 0.58968 M 65.204169,-157.74513 -10.495788,-168.34735 m 0,0 -50.812314,48.37261"
     style="fill:none;stroke:#000000;stroke-width:1.67857;stroke-linecap:round"
     id="path192" />
  <path
     d="M 65.204169,-157.74513 V -25.656744 L -10.495788,-168.34735 Z"
     style="fill:#eeeeee;fill-opacity:0.4;stroke-width:1.67857"
     id="path194" />
  <path
     d="m 587.49591,99.821923 v 0 l 20.10781,2.816207 z m 0,0 v 0 l 20.10781,2.816207 z m 0,0 v 0 l 20.10781,2.816207 z m 0,0 v 0 l 20.10781,2.816207 z"
     style="fill:#ffbbbb;fill-opacity:0.4;stroke-width:1.67857"
     id="path196" />
  <path
     d="m -43.306678,-126.04831 -25.406154,24.18632"
     style="fill:none;stroke:#000000;stroke-width:1.67857;stroke-linecap:round"
     id="path198" />
  <path
     d="m -68.712832,-35.817804 25.406154,-24.186303 V -126.04831 Z M 236.71192,-1.6360899 85.311977,-22.840532 V -154.92891 Z M 619.27869,-361.51015 v 528.35357 l -18.925,-531.00413 z m -990.79139,283.283461 302.799868,42.408885 v -66.044186 z m 361.016912,-90.120661 v 132.088392 l -50.812314,-83.715782 z"
     style="fill:#eeeeee;fill-opacity:0.4;stroke-width:1.67857"
     id="path200" />
  <path
     d="M 65.204169,-157.74513 14.391858,-109.3725"
     style="fill:none;stroke:#000000;stroke-width:1.67857;stroke-linecap:round"
     id="path202" />
  <path
     d="m 641.16071,-358.44545 v 528.35358 l -1.77422,-528.60206 z"
     style="fill:#eeeeee;fill-opacity:0.4;stroke-width:1.67857"
     id="path204" />
  <path
     d="m -60.661205,-53.273046 v 0.58968 m 0,0 -0.226844,0.21595 m 0.226844,-0.80563 -0.226844,0.21595"
     style="fill:none;stroke:#000000;stroke-width:1.67857;stroke-linecap:round"
     id="path206" />
  <path
     d="m -60.888049,-52.467416 0.226844,-0.21595 v -0.58968 z"
     style="fill:#99ddff;fill-opacity:0.4;stroke-width:1.67857"
     id="path208" />
  <path
     d="m -60.774628,-52.870224 z m 0,0 z"
     style="fill:#ffbbbb;fill-opacity:0.4;stroke-width:1.67857"
     id="path210" />
  <path
     d="m -60.888049,-53.057096 v 0.58968 l 0.226844,-0.80563 z"
     style="fill:#99ddff;fill-opacity:0.4;stroke-width:1.67857"
     id="path212" />
  <path
     d="m -60.888049,-53.057096 v 0.58968"
     style="fill:none;stroke:#000000;stroke-width:1.67857;stroke-linecap:round"
     id="path214" />
  <path
     d="M 14.391858,22.715883 65.204169,-25.656744 V -157.74513 Z"
     style="fill:#eeeeee;fill-opacity:0.4;stroke-width:1.67857"
     id="path216" />
  <path
     d="m -60.774628,-52.870224 v 0 l 15.342904,30.879044 z m 0,0 v 0 l 15.342904,30.879044 z m 0,0 v 0 l 15.342904,30.879044 z m 0,0 v 0 l 15.342904,30.879044 z"
     style="fill:#ffbbbb;fill-opacity:0.4;stroke-width:1.67857"
     id="path218" />
  <path
     d="M 236.71192,-133.72448 85.311977,-154.92891 m 0,0 -50.812311,48.37261 M 236.71192,-133.72448 V -1.6360899 m 0,0 -50.8123,48.3726279"
     style="fill:none;stroke:#000000;stroke-width:1.67857;stroke-linecap:round"
     id="path220" />
  <path
     d="M 34.499666,25.532103 85.311977,-22.840532 236.71192,-1.6360899 Z M 397.10446,357.6834 600.35369,164.19287 l 18.925,2.65055 z M -68.712832,-101.86199 v 66.044186 l 25.406154,-90.230506 z"
     style="fill:#eeeeee;fill-opacity:0.4;stroke-width:1.67857"
     id="path222" />
  <path
     d="M 408.21965,22.384567 256.81972,1.180136 m 0,-132.088386 V 1.180136 m 0,0 -50.8123,48.372621 M -68.712832,-101.86199 v 66.044186"
     style="fill:none;stroke:#000000;stroke-width:1.67857;stroke-linecap:round"
     id="path224" />
  <path
     d="M -10.495788,-36.258958 -61.308102,12.113666 V -119.97474 Z M 14.391858,22.715883 -61.308102,12.113666 65.204169,-25.656744 Z M 236.71192,-133.72448 V -1.6360899 L 85.311977,-154.92891 Z m 199.42534,496.87463 203.24923,-193.49052 1.77422,0.2485 z M 85.311977,-154.92891 V -22.840532 L 34.499666,-106.5563 Z m -70.920119,45.55641 50.812311,-48.37263 -75.699957,-10.60222 z"
     style="fill:#eeeeee;fill-opacity:0.4;stroke-width:1.67857"
     id="path226" />
  <path
     d="m -40.843266,-147.76211 h 6.334188 v 3.16708 h -6.334188 z"
     style="fill:#ffffff;stroke-width:1.67857"
     id="path228" />
  <path
     d="M -61.308102,-119.97474 V 12.113666 m 0,0 75.69996,10.602217 m 15.046024,-112.318297 -75.69996,-10.602226 m 0,-0.58968 v 0.58968 m 0,0 -0.226842,0.215959 m 75.926802,9.796587 -75.69996,-10.602226 m 0,0 -0.226842,0.21596"
     style="fill:none;stroke:#000000;stroke-width:1.67857;stroke-linecap:round"
     id="path230" />
  <path
     d="m -46.262078,-100.79432 v 0.58968 l -0.226842,-0.37372 z m 0,0.58968 -0.226842,0.215959 v -0.589679 z"
     style="fill:#99ddff;fill-opacity:0.4;stroke-width:1.67857"
     id="path232" />
  <path
     d="m -46.48892,-100.57836 v 0.589679 m 0,0 75.699974,10.602212 m -75.699974,-11.191891 75.699974,10.602211"
     style="fill:none;stroke:#000000;stroke-width:1.67857;stroke-linecap:round"
     id="path234" />
  <path
     d="M 408.21965,22.384567 256.81972,1.180136 V -130.90825 Z"
     style="fill:#eeeeee;fill-opacity:0.4;stroke-width:1.67857"
     id="path236" />
  <path
     d="M 400.68295,-16.323154 249.28301,-37.52761 m 0,-0.589666 v 0.589666 m 0,0 -0.22685,0.21595 m 151.62679,20.398812 -151.39994,-21.204428 m 0,0 -0.22685,0.21595"
     style="fill:none;stroke:#000000;stroke-width:1.67857;stroke-linecap:round"
     id="path238" />
  <path
     d="m 249.28301,-38.117276 v 0.589666 l -0.22685,-0.373716 z m 0,0.589666 -0.22685,0.21595 v -0.589666 z"
     style="fill:#99ddff;fill-opacity:0.4;stroke-width:1.67857"
     id="path240" />
  <path
     d="m 249.05616,-37.901326 v 0.589666 m 0,0 151.39994,21.204442 M 249.05616,-37.901326 400.4561,-16.696898"
     style="fill:none;stroke:#000000;stroke-width:1.67857;stroke-linecap:round"
     id="path242" />
  <path
     d="M 85.311977,-22.840532 34.499666,25.532103 V -106.5563 Z"
     style="fill:#eeeeee;fill-opacity:0.4;stroke-width:1.67857"
     id="path244" />
  <path
     d="m 29.437882,-89.602414 -75.69996,-10.602226 v -0.58968 z m -75.926802,-10.386267 0.226842,-0.215959 75.69996,10.602226 z m 0,-0.589679 75.699974,10.602211 -75.473132,-10.818171 z m 0,0 v 0.589679 l 75.699974,10.012532 z"
     style="fill:#99ddff;fill-opacity:0.4;stroke-width:1.67857"
     id="path246" />
  <path
     d="m 619.27869,-361.51015 -18.925,-2.65056 m 0,0 -203.24923,193.49052"
     style="fill:none;stroke:#000000;stroke-width:1.67857;stroke-linecap:round"
     id="path248" />
  <path
     d="m -27.078886,17.442497 h 6.334188 v 3.167091 h -6.334188 z"
     style="fill:#ffffff;stroke-width:1.67857"
     id="path250" />
  <path
     d="m 236.71192,-133.72448 -50.8123,48.372628 M 619.27869,-361.51015 416.02946,-168.01964"
     style="fill:none;stroke:#000000;stroke-width:1.67857;stroke-linecap:round"
     id="path252" />
  <path
     d="m -61.308102,-119.97474 75.69996,10.60224 -24.887646,-58.97485 z"
     style="fill:#eeeeee;fill-opacity:0.4;stroke-width:1.67857"
     id="path254" />
  <path
     d="m 29.437882,-90.192094 v 0.58968 l -75.69996,-11.191906 z m -0.226828,0.805625 -75.699974,-10.602212 75.926802,10.386267 z m 0,-0.58968 0.226828,-0.215945 -75.69996,-10.602226 z"
     style="fill:#99ddff;fill-opacity:0.4;stroke-width:1.67857"
     id="path256" />
  <path
     d="M 14.391858,-109.3725 V 22.715883 L 65.204169,-157.74513 Z"
     style="fill:#eeeeee;fill-opacity:0.4;stroke-width:1.67857"
     id="path258" />
  <path
     d="m -46.48892,-99.988681 75.699974,10.602212 v -0.58968 z"
     style="fill:#99ddff;fill-opacity:0.4;stroke-width:1.67857"
     id="path260" />
  <path
     d="m 185.89962,46.736538 50.8123,-48.3726279 V -133.72448 Z"
     style="fill:#eeeeee;fill-opacity:0.4;stroke-width:1.67857"
     id="path262" />
  <path
     d="m 408.21965,-109.70383 -151.39993,-21.20442 m 0,0 -50.8123,48.372616 M 197.44824,-9.9266379 46.048324,-31.13108 m 0,-0.58968 v 0.58968 m 0,0 -0.226847,0.21595 M 197.44824,-10.516318 46.048324,-31.72076 m 0,0 -0.226847,0.21595"
     style="fill:none;stroke:#000000;stroke-width:1.67857;stroke-linecap:round"
     id="path264" />
  <path
     d="m 54.964532,-134.34367 h 6.33416 v 3.16708 h -6.33416 z"
     style="fill:#ffffff;stroke-width:1.67857"
     id="path266" />
  <path
     d="m 46.048324,-31.72076 v 0.58968 l -0.226847,-0.37373 z m 0,0.58968 -0.226847,0.21595 v -0.58968 z"
     style="fill:#99ddff;fill-opacity:0.4;stroke-width:1.67857"
     id="path268" />
  <path
     d="m 45.821477,-31.50481 v 0.58968 m 0,0 151.399943,21.2044421 M 45.821477,-31.50481 197.22142,-10.300368 m 443.93929,-348.145082 -1.77422,-0.24848 m 0,0 -203.24923,193.49051 m -27.91761,55.49959 V 22.384567 m 0,0 -50.8123,48.372628"
     style="fill:none;stroke:#000000;stroke-width:1.67857;stroke-linecap:round"
     id="path270" />
  <path
     d="M 400.68295,-16.323154 249.28301,-37.52761 v -0.589666 z m -151.62679,-20.988506 0.22685,-0.21595 151.39994,21.204456 z"
     style="fill:#99ddff;fill-opacity:0.4;stroke-width:1.67857"
     id="path272" />
  <path
     d="M 641.16071,-358.44545 437.91148,-164.95492"
     style="fill:none;stroke:#000000;stroke-width:1.67857;stroke-linecap:round"
     id="path274" />
  <path
     d="m -66.929932,-55.114718 h 6.33416 v 3.167094 h -6.33416 z"
     style="fill:#ffffff;stroke-width:1.67857"
     id="path276" />
  <path
     d="M 14.391858,-109.3725 V 22.715883"
     style="fill:none;stroke:#000000;stroke-width:1.67857;stroke-linecap:round"
     id="path278" />
  <path
     d="M 249.05616,-37.901326 400.4561,-16.696898 249.28301,-38.117276 Z m 0,0 v 0.589666 l 151.39994,20.614762 z"
     style="fill:#99ddff;fill-opacity:0.4;stroke-width:1.67857"
     id="path280" />
  <path
     d="m 29.437882,-90.192094 v 0.58968 m 0,0 -0.226828,0.215945"
     style="fill:none;stroke:#000000;stroke-width:1.67857;stroke-linecap:round"
     id="path282" />
  <path
     d="M 185.89962,46.736538 34.499666,25.532103 236.71192,-1.6360899 Z"
     style="fill:#eeeeee;fill-opacity:0.4;stroke-width:1.67857"
     id="path284" />
  <path
     d="m 29.437882,-90.192094 -0.226828,0.215945"
     style="fill:none;stroke:#000000;stroke-width:1.67857;stroke-linecap:round"
     id="path286" />
  <path
     d="m 29.211054,-89.386469 0.226828,-0.215945 v -0.58968 z"
     style="fill:#99ddff;fill-opacity:0.4;stroke-width:1.67857"
     id="path288" />
  <path
     d="m 29.324468,-89.789271 z m 0,0 z"
     style="fill:#ffbbbb;fill-opacity:0.4;stroke-width:1.67857"
     id="path290" />
  <path
     d="m 29.211054,-89.976149 v 0.58968 l 0.226828,-0.805625 z"
     style="fill:#99ddff;fill-opacity:0.4;stroke-width:1.67857"
     id="path292" />
  <path
     d="m 29.211054,-89.976149 v 0.58968"
     style="fill:none;stroke:#000000;stroke-width:1.67857;stroke-linecap:round"
     id="path294" />
  <path
     d="M 206.00742,49.552757 256.81972,1.180136 408.21965,22.384567 Z"
     style="fill:#eeeeee;fill-opacity:0.4;stroke-width:1.67857"
     id="path296" />
  <path
     d="m 29.324468,-89.789271 v 0 l 20.107796,2.816219 z m 0,0 v 0 l 20.107796,2.816219 z m 0,0 v 0 l 20.107796,2.816219 z m 0,0 v 0 l 20.107796,2.816219 z"
     style="fill:#ffbbbb;fill-opacity:0.4;stroke-width:1.67857"
     id="path298" />
  <path
     d="M 504.02744,35.803002 428.32747,25.200784 m 0,-132.088384 V 25.200784 m 0,0 -50.81231,48.372632 M 34.499666,-106.5563 V 25.532103 m 0,0 151.399954,21.204435"
     style="fill:none;stroke:#000000;stroke-width:1.67857;stroke-linecap:round"
     id="path300" />
  <path
     d="m -61.308102,12.113666 75.69996,10.602217 V -109.3725 Z m 247.207722,-97.465518 50.8123,-48.372628 -151.399943,-21.20443 z"
     style="fill:#eeeeee;fill-opacity:0.4;stroke-width:1.67857"
     id="path302" />
  <path
     d="M 197.44824,-9.9266379 46.048324,-31.13108 v -0.58968 z M 45.821477,-30.91513 46.048324,-31.13108 197.44824,-9.9266379 Z"
     style="fill:#99ddff;fill-opacity:0.4;stroke-width:1.67857"
     id="path304" />
  <path
     d="M 408.21965,-109.70383 V 22.384567 L 256.81972,-130.90825 Z"
     style="fill:#eeeeee;fill-opacity:0.4;stroke-width:1.67857"
     id="path306" />
  <path
     d="M 45.821477,-31.50481 197.22142,-10.300368 46.048324,-31.72076 Z m 0,0 v 0.58968 l 151.399943,20.614762 z"
     style="fill:#99ddff;fill-opacity:0.4;stroke-width:1.67857"
     id="path308" />
  <path
     d="M -61.308102,-119.97474 V 12.113666 L 14.391858,-109.3725 Z"
     style="fill:#eeeeee;fill-opacity:0.4;stroke-width:1.67857"
     id="path310" />
  <path
     d="m 400.68295,-16.912848 v 0.589694 L 249.28301,-38.117276 Z m -0.22685,0.80563 -151.39994,-21.204442 151.62679,20.988506 z m 0,-0.58968 0.22685,-0.21595 -151.39994,-21.204428 z M 249.05616,-37.31166 400.4561,-16.107218 v -0.58968 z"
     style="fill:#99ddff;fill-opacity:0.4;stroke-width:1.67857"
     id="path312" />
  <path
     d="M 416.02946,360.33394 619.27869,166.84342 V -361.51015 Z M 256.81972,-130.90825 V 1.180136 l -50.8123,-83.71577 z"
     style="fill:#eeeeee;fill-opacity:0.4;stroke-width:1.67857"
     id="path314" />
  <path
     d="m -61.308102,-119.97474 75.69996,10.60224"
     style="fill:none;stroke:#000000;stroke-width:1.67857;stroke-linecap:round"
     id="path316" />
  <path
     d="M 437.91148,363.39865 641.16071,169.90813 V -358.44545 Z M 504.02744,35.803002 428.32747,25.200784 V -106.8876 Z"
     style="fill:#eeeeee;fill-opacity:0.4;stroke-width:1.67857"
     id="path318" />
  <path
     d="m 197.44824,-10.516318 v 0.5896801 L 46.048324,-31.72076 Z"
     style="fill:#99ddff;fill-opacity:0.4;stroke-width:1.67857"
     id="path320" />
  <path
     d="M 504.02744,-96.285389 V 35.803002 m 0,0 -50.81231,48.372633"
     style="fill:none;stroke:#000000;stroke-width:1.67857;stroke-linecap:round"
     id="path322" />
  <path
     d="M 197.22142,-9.7106879 45.821477,-30.91513 197.44824,-9.9266379 Z m 0,-0.5896801 0.22682,-0.21595 L 46.048324,-31.72076 Z M 45.821477,-30.91513 197.22142,-9.7106879 v -0.5896801 z"
     style="fill:#99ddff;fill-opacity:0.4;stroke-width:1.67857"
     id="path324" />
  <path
     d="m 28.87784,-41.696278 h 6.334188 v 3.167094 H 28.87784 Z m 77.70103,77.858312 h 6.33418 v 3.16709 h -6.33418 z"
     style="fill:#ffffff;stroke-width:1.67857"
     id="path326" />
  <path
     d="m 400.68295,-16.912848 v 0.589694 m 0,0 -0.22685,0.215936 m 0.22685,-0.80563 -0.22685,0.21595"
     style="fill:none;stroke:#000000;stroke-width:1.67857;stroke-linecap:round"
     id="path328" />
  <path
     d="m 400.4561,-16.107218 0.22685,-0.215936 v -0.589694 z"
     style="fill:#99ddff;fill-opacity:0.4;stroke-width:1.67857"
     id="path330" />
  <path
     d="m 400.56953,-16.51004 z m 0,0 z"
     style="fill:#ffbbbb;fill-opacity:0.4;stroke-width:1.67857"
     id="path332" />
  <path
     d="M 34.499666,-106.5563 185.89962,-85.351852 85.311977,-154.92891 Z"
     style="fill:#eeeeee;fill-opacity:0.4;stroke-width:1.67857"
     id="path334" />
  <path
     d="m 400.4561,-16.696898 v 0.58968 l 0.22685,-0.80563 z"
     style="fill:#99ddff;fill-opacity:0.4;stroke-width:1.67857"
     id="path336" />
  <path
     d="m 400.4561,-16.696898 v 0.58968"
     style="fill:none;stroke:#000000;stroke-width:1.67857;stroke-linecap:round"
     id="path338" />
  <path
     d="m 400.56953,-16.51004 v 0 l 20.1078,2.816226 z m 0,0 v 0 l 20.1078,2.816226 z m 0,0 v 0 l 20.1078,2.816226 z m 0,0 v 0 l 20.1078,2.816226 z"
     style="fill:#ffbbbb;fill-opacity:0.4;stroke-width:1.67857"
     id="path340" />
  <path
     d="m 256.81972,1.180136 -50.8123,48.372621 V -82.535634 Z"
     style="fill:#eeeeee;fill-opacity:0.4;stroke-width:1.67857"
     id="path342" />
  <path
     d="m 408.21965,-109.70383 -50.8123,48.372635 m -159.95911,50.814877 v 0.5896801 m 0,0 -0.22682,0.21595 m 0.22682,-0.8056301 -0.22682,0.21595"
     style="fill:none;stroke:#000000;stroke-width:1.67857;stroke-linecap:round"
     id="path344" />
  <path
     d="m 197.22142,-9.7106879 0.22682,-0.21595 v -0.5896801 z"
     style="fill:#99ddff;fill-opacity:0.4;stroke-width:1.67857"
     id="path346" />
  <path
     d="m 197.33482,-10.113496 z m 0,0 z"
     style="fill:#ffbbbb;fill-opacity:0.4;stroke-width:1.67857"
     id="path348" />
  <path
     d="m 197.22142,-10.300368 v 0.5896801 l 0.22682,-0.8056301 z"
     style="fill:#99ddff;fill-opacity:0.4;stroke-width:1.67857"
     id="path350" />
  <path
     d="m 197.22142,-10.300368 v 0.5896801"
     style="fill:none;stroke:#000000;stroke-width:1.67857;stroke-linecap:round"
     id="path352" />
  <path
     d="m 197.33482,-10.113496 v 0 l 20.10781,2.8161981 z m 0,0 v 0 l 20.10781,2.8161981 z m 0,0 v 0 l 20.10781,2.8161981 z m 0,0 v 0 l 20.10781,2.8161981 z"
     style="fill:#ffbbbb;fill-opacity:0.4;stroke-width:1.67857"
     id="path354" />
  <path
     d="m 185.89962,-85.351852 v 132.08839 l 50.8123,-180.461018 z m 191.61554,158.925268 50.81231,-48.372632 75.69997,10.602218 z m -20.10781,-2.816221 50.8123,-48.372628 V -109.70383 Z"
     style="fill:#eeeeee;fill-opacity:0.4;stroke-width:1.67857"
     id="path356" />
  <path
     d="M 504.02744,-96.285389 428.32747,-106.8876 m 0,0 -50.81231,48.372617"
     style="fill:none;stroke:#000000;stroke-width:1.67857;stroke-linecap:round"
     id="path358" />
  <path
     d="m 226.47226,-110.32302 h 6.33418 v 3.16708 h -6.33418 z"
     style="fill:#ffffff;stroke-width:1.67857"
     id="path360" />
  <path
     d="M 504.02744,-96.285389 V 35.803002 L 428.32747,-106.8876 Z"
     style="fill:#eeeeee;fill-opacity:0.4;stroke-width:1.67857"
     id="path362" />
  <path
     d="M 34.499666,-106.5563 185.89962,-85.351852"
     style="fill:none;stroke:#000000;stroke-width:1.67857;stroke-linecap:round"
     id="path364" />
  <path
     d="M 34.499666,-106.5563 V 25.532103 L 185.89962,-85.351852 Z m 0,132.088403 151.399954,21.204435 v -132.08839 z"
     style="fill:#eeeeee;fill-opacity:0.4;stroke-width:1.67857"
     id="path366" />
  <path
     d="M 185.89962,-85.351852 V 46.736538"
     style="fill:none;stroke:#000000;stroke-width:1.67857;stroke-linecap:round"
     id="path368" />
  <path
     d="M 357.40735,70.757195 206.00742,49.552757 408.21965,22.384567 Z"
     style="fill:#eeeeee;fill-opacity:0.4;stroke-width:1.67857"
     id="path370" />
  <path
     d="M 206.00742,-82.535634 V 49.552757 m 0,0 151.39993,21.204438"
     style="fill:none;stroke:#000000;stroke-width:1.67857;stroke-linecap:round"
     id="path372" />
  <path
     d="m 357.40735,-61.331195 50.8123,-48.372635 -151.39993,-21.20442 z"
     style="fill:#eeeeee;fill-opacity:0.4;stroke-width:1.67857"
     id="path374" />
  <path
     d="M 484.11322,-8.3958499 408.41325,-18.998078 m 0,-0.58968 v 0.58968 m 0,0 -0.22684,0.21595 m 75.92681,9.7965981 -75.69997,-10.6022281 m 0,0 -0.22684,0.21595"
     style="fill:none;stroke:#000000;stroke-width:1.67857;stroke-linecap:round"
     id="path376" />
  <path
     d="m 408.41325,-19.587758 v 0.58968 l -0.22684,-0.37373 z m 0,0.58968 -0.22684,0.21595 v -0.58968 z"
     style="fill:#99ddff;fill-opacity:0.4;stroke-width:1.67857"
     id="path378" />
  <path
     d="m 408.18641,-19.371808 v 0.58968 m 0,0 75.69998,10.6022141 m -75.69998,-11.1918941 75.69998,10.6022281"
     style="fill:none;stroke:#000000;stroke-width:1.67857;stroke-linecap:round"
     id="path380" />
  <path
     d="M 600.35369,-364.16071 V 164.19287 L 397.10446,-170.67019 Z M 428.32747,-106.8876 V 25.200784 l -50.81231,-83.715767 z"
     style="fill:#eeeeee;fill-opacity:0.4;stroke-width:1.67857"
     id="path382" />
  <path
     d="m 504.02744,-96.285389 -50.81231,48.372635"
     style="fill:none;stroke:#000000;stroke-width:1.67857;stroke-linecap:round"
     id="path384" />
  <path
     d="M 484.11322,-8.3958499 408.41325,-18.998078 v -0.58968 z m -75.92681,-10.3862781 0.22684,-0.21595 75.69997,10.6022281 z m 0,-0.58968 75.69998,10.6022281 -75.47314,-10.8181781 z m 0,0 v 0.58968 l 75.69998,10.0125481 z"
     style="fill:#99ddff;fill-opacity:0.4;stroke-width:1.67857"
     id="path386" />
  <path
     d="M 453.21513,84.175635 504.02744,35.803002 V -96.285389 Z M 639.38649,-358.69393 V 169.65963 L 436.13726,-165.20342 Z"
     style="fill:#eeeeee;fill-opacity:0.4;stroke-width:1.67857"
     id="path388" />
  <path
     d="m 483.99979,-8.5827219 v 0 l 36.24338,-4.7673081 z m 0,0 v 0 l 36.24338,-4.7673081 z m 0,0 v 0 l 36.24338,-4.7673081 z m 0,0 v 0 l 36.24338,-4.7673081 z"
     style="fill:#ffbbbb;fill-opacity:0.4;stroke-width:1.67857"
     id="path390" />
  <path
     d="m 200.38559,-17.675624 h 6.33416 v 3.167094 h -6.33416 z m 77.70102,77.858313 h 6.33418 v 3.16709 h -6.33418 z"
     style="fill:#ffffff;stroke-width:1.67857"
     id="path392" />
  <path
     d="M 206.00742,-82.535634 357.40735,-61.331195 256.81972,-130.90825 Z"
     style="fill:#eeeeee;fill-opacity:0.4;stroke-width:1.67857"
     id="path394" />
  <path
     d="m 484.11322,-8.9855299 v 0.58968 L 408.41325,-19.587758 Z m -0.22683,0.805616 -75.69998,-10.6022141 75.92681,10.3862781 z m 0,-0.589666 0.22683,-0.21595 -75.69997,-10.6022281 z m -75.69998,-10.0125481 75.69998,10.6022141 v -0.589666 z"
     style="fill:#99ddff;fill-opacity:0.4;stroke-width:1.67857"
     id="path396" />
  <path
     d="M 428.32747,25.200784 377.51516,73.573416 V -58.514983 Z"
     style="fill:#eeeeee;fill-opacity:0.4;stroke-width:1.67857"
     id="path398" />
  <path
     d="m 484.11322,-8.9855299 v 0.58968 m 0,0 -0.22683,0.215936"
     style="fill:none;stroke:#000000;stroke-width:1.67857;stroke-linecap:round"
     id="path400" />
  <path
     d="M 453.21513,84.175635 377.51516,73.573416 504.02744,35.803002 Z"
     style="fill:#eeeeee;fill-opacity:0.4;stroke-width:1.67857"
     id="path402" />
  <path
     d="m 484.11322,-8.9855299 -0.22683,0.21595"
     style="fill:none;stroke:#000000;stroke-width:1.67857;stroke-linecap:round"
     id="path404" />
  <path
     d="m 483.88639,-8.1799139 0.22683,-0.215936 v -0.58968 z"
     style="fill:#99ddff;fill-opacity:0.4;stroke-width:1.67857"
     id="path406" />
  <path
     d="m 483.99979,-8.5827219 z m 0,0 z"
     style="fill:#ffbbbb;fill-opacity:0.4;stroke-width:1.67857"
     id="path408" />
  <path
     d="m 483.88639,-8.7695799 v 0.589666 l 0.22683,-0.805616 z"
     style="fill:#99ddff;fill-opacity:0.4;stroke-width:1.67857"
     id="path410" />
  <path
     d="m 483.88639,-8.7695799 v 0.589666"
     style="fill:none;stroke:#000000;stroke-width:1.67857;stroke-linecap:round"
     id="path412" />
  <path
     d="m 416.02946,360.33394 -18.925,-2.65054 222.17423,-190.83998 z M 357.40735,-61.331195 v 132.08839 l 50.8123,-180.461025 z m 95.80778,13.418441 50.81231,-48.372635 -75.69997,-10.602211 z"
     style="fill:#eeeeee;fill-opacity:0.4;stroke-width:1.67857"
     id="path414" />
  <path
     d="m 397.98,-86.302366 h 6.33418 v 3.16708 H 397.98 Z"
     style="fill:#ffffff;stroke-width:1.67857"
     id="path416" />
  <path
     d="m 206.00742,-82.535634 151.39993,21.204439"
     style="fill:none;stroke:#000000;stroke-width:1.67857;stroke-linecap:round"
     id="path418" />
  <path
     d="M 206.00742,-82.535634 V 49.552757 L 357.40735,-61.331195 Z m 231.90406,445.934284 -1.77422,-0.2485 205.02345,-193.24202 z M 206.00742,49.552757 357.40735,70.757195 v -132.08839 z"
     style="fill:#eeeeee;fill-opacity:0.4;stroke-width:1.67857"
     id="path420" />
  <path
     d="M 357.40735,-61.331195 V 70.757195 M 377.51516,-58.514983 V 73.573416 m 0,0 75.69997,10.602219"
     style="fill:none;stroke:#000000;stroke-width:1.67857;stroke-linecap:round"
     id="path422" />
  <path
     d="m 411.74437,78.902246 h 6.33418 v 3.16708 h -6.33418 z"
     style="fill:#ffffff;stroke-width:1.67857"
     id="path424" />
  <path
     d="m 377.51516,-58.514983 75.69997,10.602229 -24.88766,-58.974846 z m 75.69997,10.602229 V 84.175635 l 50.81231,-180.461024 z m -37.18567,-120.106886 203.24923,-193.49051 -18.925,-2.65056 z"
     style="fill:#eeeeee;fill-opacity:0.4;stroke-width:1.67857"
     id="path426" />
  <path
     d="m 371.89333,6.34503 h 6.33417 v 3.1670903 h -6.33417 z"
     style="fill:#ffffff;stroke-width:1.67857"
     id="path428" />
  <path
     d="M 453.21513,-47.912754 V 84.175635"
     style="fill:none;stroke:#000000;stroke-width:1.67857;stroke-linecap:round"
     id="path430" />
  <path
     d="m 437.91148,-164.95492 203.24923,-193.49053 -1.77422,-0.24848 z M 377.51516,73.573416 453.21513,84.175635 V -47.912754 Z m 0,-132.088399 V 73.573416 l 75.69997,-121.48617 z M 600.35369,164.19287 397.10446,357.6834 v -528.35359 z"
     style="fill:#eeeeee;fill-opacity:0.4;stroke-width:1.67857"
     id="path432" />
  <path
     d="m 377.51516,-58.514983 75.69997,10.602229"
     style="fill:none;stroke:#000000;stroke-width:1.67857;stroke-linecap:round"
     id="path434" />
  <path
     d="M 639.38649,169.65963 436.13726,363.15015 v -528.35357 z"
     style="fill:#eeeeee;fill-opacity:0.4;stroke-width:1.67857"
     id="path436" />
  <path
     d="m 493.78778,-271.01653 h 6.33417 v 3.16709 h -6.33417 z m 39.03279,5.46678 h 6.33418 v 3.16709 h -6.33418 z"
     style="fill:#ffffff;stroke-width:1.67857"
     id="path438" />
  <path
     d="m 416.02946,-168.01964 v 528.35358 l 203.24923,-721.84409 z m 21.88202,3.06472 v 528.35357 l 203.24923,-721.8441 z"
     style="fill:#eeeeee;fill-opacity:0.4;stroke-width:1.67857"
     id="path440" />
  <path
     d="M 397.10446,-170.67019 V 357.6834 m 0,0 18.925,2.65054"
     style="fill:none;stroke:#000000;stroke-width:1.67857;stroke-linecap:round"
     id="path442" />
  <path
     d="m 402.9462,359.03637 h 6.33417 v 3.1671 h -6.33417 z"
     style="fill:#ffffff;stroke-width:1.67857"
     id="path444" />
  <path
     d="m 416.02946,-168.01964 v 528.35358 m 20.1078,-525.53736 v 528.35357 m 0,0 1.77422,0.2485 m 0,-528.35357 v 528.35357"
     style="fill:none;stroke:#000000;stroke-width:1.67857;stroke-linecap:round"
     id="path446" />
  <path
     d="m 433.4036,363.30212 h 6.33418 v 3.16708 h -6.33418 z"
     style="fill:#ffffff;stroke-width:1.67857"
     id="path448" />
  <path
     d="m 397.10446,-170.67019 18.925,2.65055 184.32423,-196.14107 z m 39.0328,5.46677 1.77422,0.2485 201.47501,-193.73901 z m -39.0328,522.88682 18.925,2.65054 v -528.35358 z m 39.0328,5.46675 1.77422,0.2485 v -528.35357 z"
     style="fill:#eeeeee;fill-opacity:0.4;stroke-width:1.67857"
     id="path450" />
  <path
     d="m 391.48264,92.322412 h 6.33417 v 3.167089 h -6.33417 z m 39.03279,5.466767 h 6.33418 v 3.167091 h -6.33418 z"
     style="fill:#ffffff;stroke-width:1.67857"
     id="path452" />
  <path
     d="M 397.10446,-170.67019 V 357.6834 l 18.925,-525.70304 z m 39.0328,5.46677 v 528.35357 l 1.77422,-528.10507 z"
     style="fill:#eeeeee;fill-opacity:0.4;stroke-width:1.67857"
     id="path454" />
  <path
     d="m 397.10446,-170.67019 18.925,2.65055 m 20.1078,2.81622 1.77422,0.2485"
     style="fill:none;stroke:#000000;stroke-width:1.67857;stroke-linecap:round"
     id="path456" />
</svg>
