<svg viewBox="0 -100 350 350" width="1536" height="750" style="background-color: rgb(255, 255, 255);" xmlns="http://www.w3.org/2000/svg"><path d="M-146.37931837544718,10.481673596779997L-147.08692776030682,10.407686633642621M-147.08692776030682,-66.16241926166376L-147.08692776030682,10.407686633642621M-147.08692776030682,10.407686633642621L-173.93186317101714,32.59700031833978M-146.37931837544718,-66.08843229852637L-146.37931837544718,10.481673596779997M-146.37931837544718,10.481673596779997L-173.22425378615753,32.67098728147717M-128.92495354890937,12.306685354168664L-144.02062042591504,10.728296807237923M-144.02062042591504,-65.84180908806844L-144.02062042591504,10.728296807237923M-144.02062042591504,10.728296807237923L-170.86555583662536,32.91761049193509M-128.92495354890937,-64.26342054113772L-128.92495354890937,12.306685354168664M-128.92495354890937,12.306685354168664L-155.7698889596197,34.49599903886582" style="fill:none;stroke:rgb(0,0,0);stroke-width:1;stroke-linecap:round"></path><path d="M-146.37931837544718,10.481673596779997L-147.08692776030682,10.407686633642617L-147.08692776030682,-66.16241926166376zM-128.92495354890934,12.30668535416866L-144.02062042591504,10.728296807237927L-144.02062042591504,-65.84180908806844zM-146.37931837544718,-66.08843229852637L-146.37931837544718,10.481673596779997L-147.08692776030682,-66.16241926166376zM-128.92495354890934,-64.2634205411377L-128.92495354890934,12.30668535416866L-144.02062042591504,-65.84180908806844z" style="fill:rgb(238,238,238); fill-opacity: 0.22"></path><path d="M-146.37931837544718,-66.08843229852637L-147.08692776030682,-66.16241926166376M-147.08692776030682,-66.16241926166376L-173.93186317101714,-43.97310557696658M-146.37931837544718,-66.08843229852637L-173.2242537861575,-43.89911861382921" style="fill:none;stroke:rgb(0,0,0);stroke-width:1;stroke-linecap:round"></path><path d="M-173.93186317101714,32.59700031833979L-147.08692776030682,10.407686633642617L-146.37931837544718,10.481673596779997z" style="fill:rgb(238,238,238); fill-opacity: 0.22"></path><path d="M-128.92495354890937,-64.26342054113772L-144.02062042591504,-65.84180908806844M-144.02062042591504,-65.84180908806844L-170.86555583662536,-43.65249540337128" style="fill:none;stroke:rgb(0,0,0);stroke-width:1;stroke-linecap:round"></path><path d="M-170.86555583662536,32.91761049193509L-144.02062042591504,10.728296807237927L-128.92495354890934,12.30668535416866z" style="fill:rgb(238,238,238); fill-opacity: 0.22"></path><path d="M-128.92495354890937,-64.26342054113772L-155.7698889596197,-42.074106856440544M-103.08615569804346,2.1148876058357637L-133.2774894520548,-1.0418894880257117M-133.2774894520548,-39.326942435678895L-133.2774894520548,-1.0418894880257117M-133.2774894520548,-1.0418894880257117L-146.69995715740998,10.05276735432287" style="fill:none;stroke:rgb(0,0,0);stroke-width:1;stroke-linecap:round"></path><path d="M-173.2242537861575,32.67098728147717L-146.37931837544718,10.481673596779997L-146.37931837544718,-66.08843229852637zM-155.76988895961966,34.49599903886583L-128.92495354890934,12.30668535416866L-128.92495354890934,-64.2634205411377zM-103.08615569804343,2.114887605835764L-133.2774894520548,-1.0418894880257115L-133.2774894520548,-39.326942435678895zM-147.08692776030682,-66.16241926166376L-147.08692776030682,10.407686633642617L-173.93186317101714,-43.97310557696658zM-144.02062042591504,-65.84180908806844L-144.02062042591504,10.728296807237927L-170.86555583662536,-43.652495403371276z" style="fill:rgb(238,238,238); fill-opacity: 0.22"></path><path d="M-103.08615569804343,-36.17016534181742L-103.08615569804346,2.1148876058357637M-103.08615569804346,2.1148876058357637L-116.50862340339862,13.209544448184342M-103.08615569804343,-36.17016534181742L-133.2774894520548,-39.326942435678895M-133.2774894520548,-39.326942435678895L-146.69995715740995,-28.23228559333031" style="fill:none;stroke:rgb(0,0,0);stroke-width:1;stroke-linecap:round"></path><path d="M-103.08615569804343,-36.170165341817416L-103.08615569804343,2.114887605835764L-133.2774894520548,-39.326942435678895zM-146.69995715740995,10.05276735432287L-133.2774894520548,-1.0418894880257115L-103.08615569804343,2.114887605835764zM-173.2242537861575,-43.89911861382921L-146.37931837544718,-66.08843229852637L-147.08692776030682,-66.16241926166376zM-173.2242537861575,32.67098728147717L-173.93186317101714,32.59700031833979L-146.37931837544718,10.481673596779997zM-133.2774894520548,-39.326942435678895L-133.2774894520548,-1.0418894880257115L-146.69995715740995,-28.23228559333031zM-155.76988895961966,-42.074106856440544L-128.92495354890934,-64.2634205411377L-144.02062042591504,-65.84180908806844zM-155.76988895961966,34.49599903886583L-170.86555583662536,32.91761049193509L-128.92495354890934,12.30668535416866z" style="fill:rgb(238,238,238); fill-opacity: 0.22"></path><path d="M-103.08615569804343,-36.17016534181742L-116.50862340339862,-25.075508499468842M-43.700407166827375,1.8774659776904898L-104.08307467485011,-4.436088210032459M-104.08307467485011,-23.57861468385905L-104.08307467485011,-4.436088210032459M-104.08307467485011,-4.436088210032459L-110.79430852752769,1.1112402111418314" style="fill:none;stroke:rgb(0,0,0);stroke-width:1;stroke-linecap:round"></path><path d="M-147.08692776030682,10.407686633642617L-173.93186317101714,32.59700031833979L-173.93186317101714,-43.97310557696658zM-144.02062042591504,10.728296807237927L-170.86555583662536,32.91761049193509L-170.86555583662536,-43.652495403371276zM-116.50862340339859,13.209544448184346L-103.08615569804343,2.114887605835764L-103.08615569804343,-36.170165341817416zM-133.2774894520548,-1.0418894880257115L-146.69995715740995,10.05276735432287L-146.69995715740995,-28.23228559333031z" style="fill:rgb(238,238,238); fill-opacity: 0.22"></path><path d="M-43.700407166827375,-17.2650604961361L-104.08307467485011,-23.57861468385905M-104.08307467485011,-23.57861468385905L-110.79430852752769,-18.03128626268476" style="fill:none;stroke:rgb(0,0,0);stroke-width:1;stroke-linecap:round"></path><path d="M-116.50862340339859,-25.075508499468835L-103.08615569804343,-36.170165341817416L-133.2774894520548,-39.326942435678895zM-116.50862340339859,13.209544448184346L-146.69995715740995,10.05276735432287L-103.08615569804343,2.114887605835764zM-43.700407166827375,1.87746597769049L-104.08307467485008,-4.436088210032459L-104.08307467485008,-23.57861468385905zM-104.08307467485008,-23.57861468385905L-104.08307467485008,-4.436088210032459L-110.79430852752768,-18.031286262684763zM-173.2242537861575,-43.89911861382921L-173.2242537861575,32.67098728147717L-146.37931837544718,-66.08843229852637zM-110.79430852752768,1.1112402111418316L-104.08307467485008,-4.436088210032459L-43.700407166827375,1.87746597769049z" style="fill:rgb(238,238,238); fill-opacity: 0.22"></path><path d="M-146.69995715740995,-28.23228559333031L-146.69995715740998,10.05276735432287M-146.69995715740998,10.05276735432287L-116.50862340339862,13.209544448184342" style="fill:none;stroke:rgb(0,0,0);stroke-width:1;stroke-linecap:round"></path><path d="M-104.08307467485008,-4.436088210032459L-110.79430852752768,1.1112402111418316L-110.79430852752768,-18.031286262684763zM-155.76988895961966,-42.074106856440544L-155.76988895961966,34.49599903886583L-128.92495354890934,-64.2634205411377zM-146.69995715740995,-28.23228559333031L-116.50862340339859,-25.075508499468835L-133.2774894520548,-39.326942435678895zM-43.700407166827375,-17.2650604961361L-43.700407166827375,1.87746597769049L-104.08307467485008,-23.57861468385905zM-173.93186317101714,-43.97310557696658L-173.2242537861575,-43.89911861382921L-147.08692776030682,-66.16241926166376z" style="fill:rgb(238,238,238); fill-opacity: 0.22"></path><path d="M-110.79430852752769,-18.03128626268476L-110.79430852752769,1.1112402111418314M-110.79430852752769,1.1112402111418314L-50.411641019504955,7.424794398864782M-173.93186317101714,-43.97310557696658L-173.93186317101714,32.59700031833978M-173.93186317101714,32.59700031833978L-173.22425378615753,32.67098728147717M-173.2242537861575,-43.89911861382921L-173.22425378615753,32.67098728147717" style="fill:none;stroke:rgb(0,0,0);stroke-width:1;stroke-linecap:round"></path><path d="M-116.50862340339859,-25.075508499468835L-116.50862340339859,13.209544448184346L-103.08615569804343,-36.170165341817416z" style="fill:rgb(238,238,238); fill-opacity: 0.22"></path><path d="M-170.86555583662536,-43.65249540337128L-170.86555583662536,32.91761049193509M-170.86555583662536,32.91761049193509L-155.7698889596197,34.49599903886582" style="fill:none;stroke:rgb(0,0,0);stroke-width:1;stroke-linecap:round"></path><path d="M-170.86555583662536,-43.652495403371276L-155.76988895961966,-42.074106856440544L-144.02062042591504,-65.84180908806844z" style="fill:rgb(238,238,238); fill-opacity: 0.22"></path><path d="M-43.700407166827375,-17.2650604961361L-43.700407166827375,1.8774659776904898M-43.700407166827375,1.8774659776904898L-50.411641019504955,7.424794398864782M-116.50862340339862,-25.075508499468842L-116.50862340339862,13.209544448184342" style="fill:none;stroke:rgb(0,0,0);stroke-width:1;stroke-linecap:round"></path><path d="M-146.69995715740995,10.05276735432287L-116.50862340339859,13.209544448184346L-116.50862340339859,-25.075508499468835z" style="fill:rgb(238,238,238); fill-opacity: 0.22"></path><path d="M-110.79430852752769,-18.03128626268476L-50.411641019504955,-11.71773207496181" style="fill:none;stroke:rgb(0,0,0);stroke-width:1;stroke-linecap:round"></path><path d="M-146.69995715740995,-28.23228559333031L-146.69995715740995,10.05276735432287L-116.50862340339859,-25.075508499468835z" style="fill:rgb(238,238,238); fill-opacity: 0.22"></path><path d="M-155.7698889596197,-42.074106856440544L-155.7698889596197,34.49599903886582" style="fill:none;stroke:rgb(0,0,0);stroke-width:1;stroke-linecap:round"></path><path d="M-110.79430852752768,-18.031286262684763L-50.41164101950495,-11.71773207496181L-104.08307467485008,-23.57861468385905z" style="fill:rgb(238,238,238); fill-opacity: 0.22"></path><path d="M-146.69995715740995,-28.23228559333031L-116.50862340339862,-25.075508499468842" style="fill:none;stroke:rgb(0,0,0);stroke-width:1;stroke-linecap:round"></path><path d="M-50.41164101950495,-11.71773207496181L-43.700407166827375,-17.2650604961361L-104.08307467485008,-23.57861468385905zM-50.411641019504955,7.424794398864781L-110.79430852752768,1.1112402111418316L-43.700407166827375,1.87746597769049zM-173.93186317101714,32.59700031833979L-173.2242537861575,32.67098728147717L-173.2242537861575,-43.89911861382921z" style="fill:rgb(238,238,238); fill-opacity: 0.22"></path><path d="M-43.700407166827375,-17.2650604961361L-50.411641019504955,-11.71773207496181" style="fill:none;stroke:rgb(0,0,0);stroke-width:1;stroke-linecap:round"></path><path d="M-50.411641019504955,7.424794398864781L-43.700407166827375,1.87746597769049L-43.700407166827375,-17.2650604961361zM-110.79430852752768,-18.031286262684763L-110.79430852752768,1.1112402111418316L-50.41164101950495,-11.71773207496181zM-170.86555583662536,32.91761049193509L-155.76988895961966,34.49599903886583L-155.76988895961966,-42.074106856440544zM-110.79430852752768,1.1112402111418316L-50.411641019504955,7.424794398864781L-50.41164101950495,-11.71773207496181zM-173.93186317101714,-43.97310557696658L-173.93186317101714,32.59700031833979L-173.2242537861575,-43.89911861382921zM-50.41164101950495,-11.71773207496181L-50.411641019504955,7.424794398864781L-43.700407166827375,-17.2650604961361zM-170.86555583662536,-43.652495403371276L-170.86555583662536,32.91761049193509L-155.76988895961966,-42.074106856440544z" style="fill:rgb(238,238,238); fill-opacity: 0.22"></path><path d="M-50.411641019504955,-11.71773207496181L-50.411641019504955,7.424794398864782M-173.93186317101714,-43.97310557696658L-173.2242537861575,-43.89911861382921M-170.86555583662536,-43.65249540337128L-155.7698889596197,-42.074106856440544" style="fill:none;stroke:rgb(0,0,0);stroke-width:1;stroke-linecap:round"></path><path d="MNaN,NaNLNaN,NaNLNaN,NaNzMNaN,NaNLNaN,NaNLNaN,NaNzMNaN,NaNLNaN,NaNL-166.37948580802487,-23.700130248194352zMNaN,NaNLNaN,NaNL-166.37948580802487,-23.700130248194352zMNaN,NaNLNaN,NaNL-166.37948580802487,-23.700130248194352zMNaN,NaNLNaN,NaNL-166.37948580802487,-23.700130248194352zMNaN,NaNLNaN,NaNLNaN,NaNzMNaN,NaNLNaN,NaNLNaN,NaNzMNaN,NaNLNaN,NaNL-140.3287615515639,-24.795655166252764zMNaN,NaNLNaN,NaNL-140.3287615515639,-24.795655166252764zMNaN,NaNLNaN,NaNL-140.3287615515639,-24.795655166252764zMNaN,NaNLNaN,NaNL-140.3287615515639,-24.795655166252764zMNaN,NaNLNaN,NaNLNaN,NaNzMNaN,NaNLNaN,NaNLNaN,NaNzMNaN,NaNLNaN,NaNL-106.55343678351348,-10.475488369047044zMNaN,NaNLNaN,NaNL-106.55343678351348,-10.475488369047044zMNaN,NaNLNaN,NaNL-106.55343678351348,-10.475488369047044zMNaN,NaNLNaN,NaNL-106.55343678351348,-10.475488369047044zMNaN,NaNLNaN,NaNLNaN,NaNzMNaN,NaNLNaN,NaNLNaN,NaNzMNaN,NaNLNaN,NaNL-45.31739199307968,-6.880442732868527zMNaN,NaNLNaN,NaNL-45.31739199307968,-6.880442732868527zMNaN,NaNLNaN,NaNL-45.31739199307968,-6.880442732868527zMNaN,NaNLNaN,NaNL-45.31739199307968,-6.880442732868527zMNaN,NaNLNaN,NaNLNaN,NaNzMNaN,NaNLNaN,NaNLNaN,NaNzMNaN,NaNLNaN,NaNL78.54033063171437,9.972668288992695zMNaN,NaNLNaN,NaNL78.54033063171437,9.972668288992695zMNaN,NaNLNaN,NaNL78.54033063171437,9.972668288992695zMNaN,NaNLNaN,NaNL78.54033063171437,9.972668288992695z" style="fill:rgb(255,187,187); fill-opacity: 0.4"></path><path d="M77.74581733558081,11.352398050431242L-43.01951768046463,-1.2747103250146572M-43.01951768046463,-10.845973561927954L-43.01951768046463,-1.2747103250146572M-43.01951768046463,-1.2747103250146572L-46.375134606803414,1.4989538855724882M77.74581733558081,1.7811348135179457L-43.01951768046463,-10.845973561927954M-43.01951768046463,-10.845973561927954L-46.375134606803414,-8.072309351340808" style="fill:none;stroke:rgb(0,0,0);stroke-width:1;stroke-linecap:round"></path><path d="M-43.01951768046463,-10.845973561927954L-43.01951768046463,-1.2747103250146572L-46.37513460680342,-8.072309351340808zM-43.01951768046463,-1.2747103250146572L-46.37513460680342,1.4989538855724882L-46.37513460680342,-8.072309351340808z" style="fill:rgb(238,238,238); fill-opacity: 0.22"></path><path d="M-46.375134606803414,-8.072309351340808L-46.375134606803414,1.4989538855724882M-46.375134606803414,1.4989538855724882L74.39020040924203,14.126062261018387M-46.375134606803414,-8.072309351340808L74.39020040924203,4.55479902410509" style="fill:none;stroke:rgb(0,0,0);stroke-width:1;stroke-linecap:round"></path><path d="M77.74581733558081,11.35239805043124L-43.01951768046463,-1.2747103250146572L-43.01951768046463,-10.845973561927954zM-46.37513460680342,1.4989538855724882L-43.01951768046463,-1.2747103250146572L77.74581733558081,11.35239805043124zM-46.37513460680342,-8.072309351340808L74.39020040924203,4.554799024105092L-43.01951768046463,-10.845973561927954zM-46.37513460680342,-8.072309351340808L-46.37513460680342,1.4989538855724882L74.39020040924203,4.554799024105092zM77.74581733558081,1.7811348135179463L77.74581733558081,11.35239805043124L-43.01951768046463,-10.845973561927954zM74.39020040924203,4.554799024105092L77.74581733558081,1.7811348135179463L-43.01951768046463,-10.845973561927954zM74.39020040924203,14.126062261018387L-46.37513460680342,1.4989538855724882L77.74581733558081,11.35239805043124zM-46.37513460680342,1.4989538855724882L74.39020040924203,14.126062261018387L74.39020040924203,4.554799024105092z" style="fill:rgb(238,238,238); fill-opacity: 0.22"></path><path d="M77.74581733558081,1.7811348135179457L77.74581733558081,11.352398050431242M77.74581733558081,11.352398050431242L74.39020040924203,14.126062261018387M77.74581733558081,1.7811348135179457L74.39020040924203,4.55479902410509M320.7962810856191,35.15383825519943L79.26561105352825,9.89962150430763M79.26561105352825,5.113989885850982L79.26561105352825,9.89962150430763M79.26561105352825,9.89962150430763L77.58780259035886,11.286453609601203" style="fill:none;stroke:rgb(0,0,0);stroke-width:1;stroke-linecap:round"></path><path d="M74.39020040924203,14.126062261018387L77.74581733558081,11.35239805043124L77.74581733558081,1.7811348135179463z" style="fill:rgb(238,238,238); fill-opacity: 0.22"></path><path d="M320.7962810856191,30.36820663674278L79.26561105352825,5.113989885850982M79.26561105352825,5.113989885850982L77.58780259035886,6.500821991144554" style="fill:none;stroke:rgb(0,0,0);stroke-width:1;stroke-linecap:round"></path><path d="M79.26561105352826,5.113989885850984L79.26561105352825,9.899621504307632L77.58780259035886,6.500821991144557zM79.26561105352825,9.899621504307632L77.58780259035885,11.286453609601205L77.58780259035886,6.500821991144557zM74.39020040924203,4.554799024105092L74.39020040924203,14.126062261018387L77.74581733558081,1.7811348135179463z" style="fill:rgb(238,238,238); fill-opacity: 0.22"></path><path d="M77.58780259035886,6.500821991144554L77.58780259035886,11.286453609601203M77.58780259035886,11.286453609601203L319.11847262244976,36.540670360493M74.39020040924203,4.55479902410509L74.39020040924203,14.126062261018387M77.58780259035886,6.500821991144554L319.11847262244976,31.75503874203635" style="fill:none;stroke:rgb(0,0,0);stroke-width:1;stroke-linecap:round"></path><path d="M320.7962810856191,35.15383825519943L79.26561105352825,9.899621504307632L79.26561105352826,5.113989885850984zM77.58780259035885,11.286453609601205L79.26561105352825,9.899621504307632L320.7962810856191,35.15383825519943zM77.58780259035886,6.500821991144557L319.11847262244976,31.75503874203636L79.26561105352826,5.113989885850984zM77.58780259035886,6.500821991144557L77.58780259035885,11.286453609601205L319.11847262244976,31.75503874203636z" style="fill:rgb(238,238,238); fill-opacity: 0.22"></path><path d="M330.2310728837477,156.25968472029302L325.5136769846834,155.76643829937717M325.51367698468346,-89.25790056560321L325.5136769846834,155.76643829937717M325.5136769846834,155.76643829937717L323.83586852151404,157.15327040467074M330.23107288374774,-88.76465414468737L330.2310728837477,156.25968472029302M330.2310728837477,156.25968472029302L328.5532644205783,157.6465168255866" style="fill:none;stroke:rgb(0,0,0);stroke-width:1;stroke-linecap:round"></path><path d="M323.83586852151404,157.1532704046707L325.51367698468346,155.76643829937714L330.23107288374774,156.25968472029302zM328.55326442057833,157.6465168255866L323.83586852151404,157.1532704046707L330.23107288374774,156.25968472029302z" style="fill:rgb(238,238,238); fill-opacity: 0.22"></path><path d="M323.83586852151404,-87.87106846030966L323.83586852151404,157.15327040467074M323.83586852151404,157.15327040467074L328.5532644205783,157.6465168255866M328.55326442057833,-87.3778220393938L328.5532644205783,157.6465168255866" style="fill:none;stroke:rgb(0,0,0);stroke-width:1;stroke-linecap:round"></path><path d="M320.7962810856191,30.368206636742784L320.7962810856191,35.15383825519943L79.26561105352826,5.113989885850984zM319.11847262244976,31.75503874203636L320.7962810856191,30.368206636742784L79.26561105352826,5.113989885850984zM319.11847262244976,36.540670360493L77.58780259035885,11.286453609601205L320.7962810856191,35.15383825519943zM77.58780259035885,11.286453609601205L319.11847262244976,36.540670360493L319.11847262244976,31.75503874203636zM330.23107288374774,156.25968472029302L325.51367698468346,155.76643829937714L325.51367698468346,-89.25790056560322zM325.51367698468346,155.76643829937714L323.83586852151404,157.1532704046707L323.83586852151404,-87.87106846030967zM328.55326442057833,157.6465168255866L330.23107288374774,156.25968472029302L330.23107288374774,-88.76465414468737zM323.83586852151404,157.1532704046707L328.55326442057833,157.6465168255866L328.55326442057833,-87.3778220393938z" style="fill:rgb(238,238,238); fill-opacity: 0.22"></path><path d="M320.7962810856191,30.36820663674278L320.7962810856191,35.15383825519943M320.7962810856191,35.15383825519943L319.11847262244976,36.540670360493M320.7962810856191,30.36820663674278L319.11847262244976,31.75503874203635" style="fill:none;stroke:rgb(0,0,0);stroke-width:1;stroke-linecap:round"></path><path d="M319.11847262244976,36.540670360493L320.7962810856191,35.15383825519943L320.7962810856191,30.368206636742784z" style="fill:rgb(238,238,238); fill-opacity: 0.22"></path><path d="M322.5519445985198,33.72572403012161L323.6526703083015,33.84081486166865" style="fill:none;stroke:rgb(0,0,0);stroke-width:1;stroke-linecap:round"></path><path d="M319.11847262244976,31.75503874203636L319.11847262244976,36.540670360493L320.7962810856191,30.368206636742784z" style="fill:rgb(238,238,238); fill-opacity: 0.22"></path><path d="M323.45320896932833,34.190539521898444L323.6526703083015,34.439018813975736L324.4389029581455,33.92302259848796zM323.77594419041264,33.25496276231759L323.5293964261904,33.45875262416269L324.4389029581455,33.92302259848796z" style="fill:rgb(0,0,0)"></path><path d="M319.11847262244976,31.75503874203635L319.11847262244976,36.540670360493" style="fill:none;stroke:rgb(0,0,0);stroke-width:1;stroke-linecap:round"></path><path d="M323.5293964261904,33.45875262416269L323.45320896932833,34.190539521898444L324.4389029581455,33.92302259848796z" style="fill:rgb(0,0,0)"></path><path d="M330.23107288374774,-88.76465414468737L330.23107288374774,156.25968472029302L325.51367698468346,-89.25790056560322zM325.51367698468346,-89.25790056560322L325.51367698468346,155.76643829937714L323.83586852151404,-87.87106846030967zM328.55326442057833,-87.3778220393938L328.55326442057833,157.6465168255866L330.23107288374774,-88.76465414468737zM323.83586852151404,-87.87106846030967L323.83586852151404,157.1532704046707L328.55326442057833,-87.3778220393938z" style="fill:rgb(238,238,238); fill-opacity: 0.22"></path><path d="M330.23107288374774,-88.76465414468737L325.51367698468346,-89.25790056560321M325.51367698468346,-89.25790056560321L323.83586852151404,-87.87106846030966M330.23107288374774,-88.76465414468737L328.55326442057833,-87.3778220393938" style="fill:none;stroke:rgb(0,0,0);stroke-width:1;stroke-linecap:round"></path><path d="M328.55326442057833,-87.3778220393938L330.23107288374774,-88.76465414468737L325.51367698468346,-89.25790056560322zM323.83586852151404,-87.87106846030967L328.55326442057833,-87.3778220393938L325.51367698468346,-89.25790056560322z" style="fill:rgb(238,238,238); fill-opacity: 0.22"></path><path d="M323.83586852151404,-87.87106846030966L328.55326442057833,-87.3778220393938" style="fill:none;stroke:rgb(0,0,0);stroke-width:1;stroke-linecap:round"></path></svg>