<svg viewBox="-768 -375 1536 750" width="1536" height="750" style="background-color: rgb(255, 255, 255);" xmlns="http://www.w3.org/2000/svg"><path d="M-139.29789425720438,122.10778029486994L-219.30596507239292,113.74221263458479M-219.30596507239284,-292.0846053995272L-219.30596507239292,113.74221263458479M-219.30596507239292,113.74221263458479L-361.585965742049,231.34709853266503M-139.29789425720432,-283.719037739242L-139.29789425720438,122.10778029486994M-139.29789425720438,122.10778029486994L-281.5778949268605,239.71266619295022M-93.0432283171735,126.94412409847233L-133.0472637247678,122.76134026832973M-133.04726372476773,-283.06547776578225L-133.0472637247678,122.76134026832973M-133.0472637247678,122.76134026832973L-275.3272643944239,240.36622616641M-93.04322831717346,-278.8826939356397L-93.0432283171735,126.94412409847233M-93.0432283171735,126.94412409847233L-235.32322898682958,244.54900999655257" style="fill:none;stroke:rgb(0,0,0);stroke-width:1;stroke-linecap:round"></path><path d="M-139.29789425720435,122.10778029486997L-219.3059650723929,113.74221263458479L-219.30596507239284,-292.0846053995272zM-93.0432283171735,126.94412409847233L-133.0472637247678,122.76134026832975L-133.04726372476773,-283.0654777657823zM-139.2978942572043,-283.719037739242L-139.29789425720435,122.10778029486997L-219.30596507239284,-292.0846053995272zM-93.04322831717346,-278.8826939356397L-93.0432283171735,126.94412409847233L-133.04726372476773,-283.0654777657823z" style="fill:rgb(238,238,238); fill-opacity: 0.22"></path><path d="M-139.29789425720432,-283.719037739242L-219.30596507239284,-292.0846053995272M-219.30596507239284,-292.0846053995272L-361.585965742049,-174.479719501447" style="fill:none;stroke:rgb(0,0,0);stroke-width:1;stroke-linecap:round"></path><path d="M-361.585965742049,231.34709853266503L-219.3059650723929,113.74221263458479L-139.29789425720435,122.10778029486997z" style="fill:rgb(238,238,238); fill-opacity: 0.22"></path><path d="M-139.29789425720432,-283.719037739242L-281.5778949268604,-166.11415184116183M-93.04322831717346,-278.8826939356397L-133.04726372476773,-283.06547776578225M-133.04726372476773,-283.06547776578225L-275.3272643944238,-165.46059186770205" style="fill:none;stroke:rgb(0,0,0);stroke-width:1;stroke-linecap:round"></path><path d="M-275.3272643944239,240.36622616640997L-133.0472637247678,122.76134026832975L-93.0432283171735,126.94412409847233z" style="fill:rgb(238,238,238); fill-opacity: 0.22"></path><path d="M-93.04322831717346,-278.8826939356397L-235.32322898682955,-161.27780803755945M-42.354527136962375,63.90776869820935L-122.3625979521509,55.54220103792417M-122.36259795215088,-147.37120797913184L-122.3625979521509,55.54220103792417M-122.3625979521509,55.54220103792417L-193.50259828697898,114.34464398696429" style="fill:none;stroke:rgb(0,0,0);stroke-width:1;stroke-linecap:round"></path><path d="M-281.57789492686044,239.71266619295022L-139.29789425720435,122.10778029486997L-139.2978942572043,-283.719037739242z" style="fill:rgb(238,238,238); fill-opacity: 0.22"></path><path d="M-42.35452713696235,-139.00564031884667L-42.354527136962375,63.90776869820935M-42.354527136962375,63.90776869820935L-113.49452747179043,122.71021164724945" style="fill:none;stroke:rgb(0,0,0);stroke-width:1;stroke-linecap:round"></path><path d="M-42.35452713696238,63.907768698209345L-122.3625979521509,55.54220103792416L-122.36259795215088,-147.37120797913184zM-219.30596507239284,-292.0846053995272L-219.3059650723929,113.74221263458479L-361.5859657420489,-174.479719501447zM-235.32322898682958,244.54900999655257L-93.0432283171735,126.94412409847233L-93.04322831717346,-278.8826939356397zM-42.35452713696236,-139.00564031884664L-42.35452713696238,63.907768698209345L-122.36259795215088,-147.37120797913184z" style="fill:rgb(238,238,238); fill-opacity: 0.22"></path><path d="M-42.35452713696235,-139.00564031884667L-122.36259795215088,-147.37120797913184M-122.36259795215088,-147.37120797913184L-193.50259828697892,-88.56876503009173" style="fill:none;stroke:rgb(0,0,0);stroke-width:1;stroke-linecap:round"></path><path d="M-133.04726372476773,-283.0654777657823L-133.0472637247678,122.76134026832975L-275.3272643944238,-165.46059186770202zM-193.50259828697892,114.34464398696429L-122.3625979521509,55.54220103792416L-42.35452713696238,63.907768698209345z" style="fill:rgb(238,238,238); fill-opacity: 0.22"></path><path d="M-42.35452713696235,-139.00564031884667L-113.4945274717904,-80.20319736980653" style="fill:none;stroke:rgb(0,0,0);stroke-width:1;stroke-linecap:round"></path><path d="M-281.5778949268604,-166.11415184116183L-139.2978942572043,-283.719037739242L-219.30596507239284,-292.0846053995272zM-281.57789492686044,239.71266619295022L-361.585965742049,231.34709853266503L-139.29789425720435,122.10778029486997zM-122.36259795215088,-147.37120797913184L-122.3625979521509,55.54220103792416L-193.50259828697892,-88.56876503009173zM-113.49452747179043,122.71021164724948L-42.35452713696238,63.907768698209345L-42.35452713696236,-139.00564031884664zM-235.32322898682955,-161.27780803755945L-93.04322831717346,-278.8826939356397L-133.04726372476773,-283.0654777657823zM-235.32322898682958,244.54900999655257L-275.3272643944239,240.36622616640997L-93.0432283171735,126.94412409847233zM-219.3059650723929,113.74221263458479L-361.585965742049,231.34709853266503L-361.5859657420489,-174.479719501447zM-113.4945274717904,-80.20319736980655L-42.35452713696236,-139.00564031884664L-122.36259795215088,-147.37120797913184zM-113.49452747179043,122.71021164724948L-193.50259828697892,114.34464398696429L-42.35452713696238,63.907768698209345zM-122.3625979521509,55.54220103792416L-193.50259828697892,114.34464398696429L-193.50259828697892,-88.56876503009173zM-133.0472637247678,122.76134026832975L-275.3272643944239,240.36622616640997L-275.3272643944238,-165.46059186770202z" style="fill:rgb(238,238,238); fill-opacity: 0.22"></path><path d="M-193.50259828697892,-88.56876503009173L-193.50259828697898,114.34464398696429M-193.50259828697898,114.34464398696429L-113.49452747179043,122.71021164724945" style="fill:none;stroke:rgb(0,0,0);stroke-width:1;stroke-linecap:round"></path><path d="M-281.5778949268604,-166.11415184116183L-281.57789492686044,239.71266619295022L-139.2978942572043,-283.719037739242zM-113.4945274717904,-80.20319736980655L-113.49452747179043,122.71021164724948L-42.35452713696236,-139.00564031884664zM-193.50259828697892,-88.56876503009173L-113.4945274717904,-80.20319736980655L-122.36259795215088,-147.37120797913184zM-235.32322898682955,-161.27780803755945L-235.32322898682958,244.54900999655257L-93.04322831717346,-278.8826939356397z" style="fill:rgb(238,238,238); fill-opacity: 0.22"></path><path d="M-361.585965742049,-174.479719501447L-361.585965742049,231.34709853266503M-361.585965742049,231.34709853266503L-281.5778949268605,239.71266619295022" style="fill:none;stroke:rgb(0,0,0);stroke-width:1;stroke-linecap:round"></path><path d="M-361.5859657420489,-174.479719501447L-281.5778949268604,-166.11415184116183L-219.30596507239284,-292.0846053995272z" style="fill:rgb(238,238,238); fill-opacity: 0.22"></path><path d="M-113.4945274717904,-80.20319736980653L-113.49452747179043,122.71021164724945" style="fill:none;stroke:rgb(0,0,0);stroke-width:1;stroke-linecap:round"></path><path d="M-193.50259828697892,114.34464398696429L-113.49452747179043,122.71021164724948L-113.4945274717904,-80.20319736980655z" style="fill:rgb(238,238,238); fill-opacity: 0.22"></path><path d="M-281.5778949268604,-166.11415184116183L-281.5778949268605,239.71266619295022M-275.3272643944238,-165.46059186770205L-275.3272643944239,240.36622616641M-275.3272643944239,240.36622616641L-235.32322898682958,244.54900999655257" style="fill:none;stroke:rgb(0,0,0);stroke-width:1;stroke-linecap:round"></path><path d="M-275.3272643944238,-165.46059186770202L-235.32322898682955,-161.27780803755945L-133.04726372476773,-283.0654777657823zM-193.50259828697892,-88.56876503009173L-193.50259828697892,114.34464398696429L-113.4945274717904,-80.20319736980655z" style="fill:rgb(238,238,238); fill-opacity: 0.22"></path><path d="M-235.32322898682955,-161.27780803755945L-235.32322898682958,244.54900999655257M-193.50259828697892,-88.56876503009173L-113.4945274717904,-80.20319736980653" style="fill:none;stroke:rgb(0,0,0);stroke-width:1;stroke-linecap:round"></path><path d="M-361.585965742049,231.34709853266503L-281.57789492686044,239.71266619295022L-281.5778949268604,-166.11415184116183zM-275.3272643944239,240.36622616640997L-235.32322898682958,244.54900999655257L-235.32322898682955,-161.27780803755945zM-361.5859657420489,-174.479719501447L-361.585965742049,231.34709853266503L-281.5778949268604,-166.11415184116183zM-275.3272643944238,-165.46059186770202L-275.3272643944239,240.36622616640997L-235.32322898682955,-161.27780803755945z" style="fill:rgb(238,238,238); fill-opacity: 0.22"></path><path d="M-361.585965742049,-174.479719501447L-281.5778949268604,-166.11415184116183M-275.3272643944238,-165.46059186770205L-235.32322898682955,-161.27780803755945" style="fill:none;stroke:rgb(0,0,0);stroke-width:1;stroke-linecap:round"></path><path d="MNaN,NaNLNaN,NaNLNaN,NaNzMNaN,NaNLNaN,NaNLNaN,NaNzMNaN,NaNLNaN,NaNL-180.89698560724898,30.83246135259031zMNaN,NaNLNaN,NaNL-180.89698560724898,30.83246135259031zMNaN,NaNLNaN,NaNL-180.89698560724898,30.83246135259031zMNaN,NaNLNaN,NaNL-180.89698560724898,30.83246135259031zMNaN,NaNLNaN,NaNLNaN,NaNzMNaN,NaNLNaN,NaNLNaN,NaNzMNaN,NaNLNaN,NaNL-130.77332114076773,-107.2526865592469zMNaN,NaNLNaN,NaNL-130.77332114076773,-107.2526865592469zMNaN,NaNLNaN,NaNL-130.77332114076773,-107.2526865592469zMNaN,NaNLNaN,NaNL-130.77332114076773,-107.2526865592469zMNaN,NaNLNaN,NaNLNaN,NaNzMNaN,NaNLNaN,NaNLNaN,NaNzMNaN,NaNLNaN,NaNL-63.995567223525256,10.451678502754923zMNaN,NaNLNaN,NaNL-63.995567223525256,10.451678502754923zMNaN,NaNLNaN,NaNL-63.995567223525256,10.451678502754923zMNaN,NaNLNaN,NaNL-63.995567223525256,10.451678502754923zMNaN,NaNLNaN,NaNLNaN,NaNzMNaN,NaNLNaN,NaNLNaN,NaNzMNaN,NaNLNaN,NaNL99.91741882339691,-3.334296065655972zMNaN,NaNLNaN,NaNL99.91741882339691,-3.334296065655972zMNaN,NaNLNaN,NaNL99.91741882339691,-3.334296065655972zMNaN,NaNLNaN,NaNL99.91741882339691,-3.334296065655972zMNaN,NaNLNaN,NaNLNaN,NaNzMNaN,NaNLNaN,NaNLNaN,NaNzMNaN,NaNLNaN,NaNL419.2321147046939,39.40654808305317zMNaN,NaNLNaN,NaNL419.2321147046939,39.40654808305317zMNaN,NaNLNaN,NaNL419.2321147046939,39.40654808305317zMNaN,NaNLNaN,NaNL419.2321147046939,39.40654808305317z" style="fill:rgb(255,187,187); fill-opacity: 0.4"></path><path d="M106.12724494214429,45.26472247523552L-53.88889668823278,28.533587154665156M-53.88889668823278,-72.92311735386285L-53.88889668823278,28.533587154665156M-53.88889668823278,28.533587154665156L-89.45889685564681,57.93480862918521" style="fill:none;stroke:rgb(0,0,0);stroke-width:1;stroke-linecap:round"></path><path d="M106.12724494214429,45.26472247523552L-53.88889668823279,28.53358715466516L-53.88889668823278,-72.92311735386285z" style="fill:rgb(238,238,238); fill-opacity: 0.22"></path><path d="M106.12724494214429,-56.19198203329248L-53.88889668823278,-72.92311735386285M-53.88889668823278,-72.92311735386285L-89.45889685564681,-43.52189587934279" style="fill:none;stroke:rgb(0,0,0);stroke-width:1;stroke-linecap:round"></path><path d="M-89.45889685564681,57.93480862918521L-53.88889668823279,28.53358715466516L106.12724494214429,45.26472247523552zM-53.88889668823278,-72.92311735386285L-53.88889668823279,28.53358715466516L-89.4588968556468,-43.521895879342786z" style="fill:rgb(238,238,238); fill-opacity: 0.22"></path><path d="M106.12724494214429,-56.19198203329248L106.12724494214429,45.26472247523552M106.12724494214429,45.26472247523552L70.55724477473025,74.66594394975559" style="fill:none;stroke:rgb(0,0,0);stroke-width:1;stroke-linecap:round"></path><path d="M106.12724494214429,-56.19198203329249L106.12724494214429,45.26472247523552L-53.88889668823278,-72.92311735386285zM-53.88889668823279,28.53358715466516L-89.45889685564681,57.93480862918521L-89.4588968556468,-43.521895879342786z" style="fill:rgb(238,238,238); fill-opacity: 0.22"></path><path d="M106.12724494214429,-56.19198203329248L70.55724477473026,-26.790760558772423M423.51765869348156,61.36668233133405L103.4853754327274,27.904411690193317M103.4853754327274,-22.823940564070686L103.4853754327274,27.904411690193317M103.4853754327274,27.904411690193317L85.70037534902038,42.60502242745335M-89.45889685564681,-43.52189587934279L-89.45889685564681,57.93480862918521M-89.45889685564681,57.93480862918521L70.55724477473025,74.66594394975559" style="fill:none;stroke:rgb(0,0,0);stroke-width:1;stroke-linecap:round"></path><path d="M70.55724477473025,74.66594394975557L106.12724494214429,45.26472247523552L106.12724494214429,-56.19198203329249zM70.55724477473026,-26.790760558772426L106.12724494214429,-56.19198203329249L-53.88889668823278,-72.92311735386285zM70.55724477473025,74.66594394975557L-89.45889685564681,57.93480862918521L106.12724494214429,45.26472247523552z" style="fill:rgb(238,238,238); fill-opacity: 0.22"></path><path d="M423.51765869348156,10.638330077070043L103.4853754327274,-22.823940564070686M103.4853754327274,-22.823940564070686L85.70037534902038,-8.123329826810657" style="fill:none;stroke:rgb(0,0,0);stroke-width:1;stroke-linecap:round"></path><path d="M-89.4588968556468,-43.521895879342786L70.55724477473026,-26.790760558772426L-53.88889668823278,-72.92311735386285zM103.4853754327274,-22.823940564070686L103.4853754327274,27.904411690193317L85.70037534902036,-8.123329826810659zM103.4853754327274,27.904411690193317L85.70037534902036,42.60502242745335L85.70037534902036,-8.123329826810659z" style="fill:rgb(238,238,238); fill-opacity: 0.22"></path><path d="M-89.45889685564681,-43.52189587934279L70.55724477473026,-26.790760558772423" style="fill:none;stroke:rgb(0,0,0);stroke-width:1;stroke-linecap:round"></path><path d="M423.5176586934815,61.36668233133403L103.4853754327274,27.904411690193317L103.4853754327274,-22.823940564070686zM-89.4588968556468,-43.521895879342786L-89.45889685564681,57.93480862918521L70.55724477473026,-26.790760558772426z" style="fill:rgb(238,238,238); fill-opacity: 0.22"></path><path d="M85.70037534902038,-8.123329826810657L85.70037534902038,42.60502242745335M85.70037534902038,42.60502242745335L405.73265860977455,76.06729306859408" style="fill:none;stroke:rgb(0,0,0);stroke-width:1;stroke-linecap:round"></path><path d="M70.55724477473026,-26.790760558772426L70.55724477473025,74.66594394975557L106.12724494214429,-56.19198203329249zM85.70037534902036,42.60502242745335L103.4853754327274,27.904411690193317L423.5176586934815,61.36668233133403zM-89.45889685564681,57.93480862918521L70.55724477473025,74.66594394975557L70.55724477473026,-26.790760558772426z" style="fill:rgb(238,238,238); fill-opacity: 0.22"></path><path d="M70.55724477473026,-26.790760558772423L70.55724477473025,74.66594394975559M85.70037534902038,-8.123329826810657L405.73265860977455,25.338940814330073" style="fill:none;stroke:rgb(0,0,0);stroke-width:1;stroke-linecap:round"></path><path d="M423.5176586934815,10.638330077070036L423.5176586934815,61.36668233133403L103.4853754327274,-22.823940564070686zM85.70037534902036,-8.123329826810659L405.7326586097745,25.33894081433007L103.4853754327274,-22.823940564070686zM85.70037534902036,-8.123329826810659L85.70037534902036,42.60502242745335L405.7326586097745,25.33894081433007zM405.7326586097745,25.33894081433007L423.5176586934815,10.638330077070036L103.4853754327274,-22.823940564070686zM405.7326586097745,76.06729306859407L85.70037534902036,42.60502242745335L423.5176586934815,61.36668233133403z" style="fill:rgb(238,238,238); fill-opacity: 0.22"></path><path d="M423.51765869348156,10.638330077070043L423.51765869348156,61.36668233133405M423.51765869348156,61.36668233133405L405.73265860977455,76.06729306859408M469.7723246335123,66.20302613493641L429.7682892259181,62.02024230479382M429.7682892259181,11.291890050529815L429.7682892259181,62.02024230479382M429.7682892259181,62.02024230479382L411.9832891422111,76.72085304205385" style="fill:none;stroke:rgb(0,0,0);stroke-width:1;stroke-linecap:round"></path><path d="M469.7723246335123,66.20302613493641L429.768289225918,62.02024230479382L429.768289225918,11.291890050529819z" style="fill:rgb(238,238,238); fill-opacity: 0.22"></path><path d="M423.51765869348156,10.638330077070043L405.73265860977455,25.338940814330073M469.7723246335123,15.474673880672407L469.7723246335123,66.20302613493641M469.7723246335123,66.20302613493641L451.9873245498053,80.90363687219644" style="fill:none;stroke:rgb(0,0,0);stroke-width:1;stroke-linecap:round"></path><path d="M85.70037534902036,42.60502242745335L405.7326586097745,76.06729306859407L405.7326586097745,25.33894081433007z" style="fill:rgb(238,238,238); fill-opacity: 0.22"></path><path d="M469.7723246335123,15.474673880672407L429.7682892259181,11.291890050529815M429.7682892259181,11.291890050529815L411.9832891422111,25.992500787789844" style="fill:none;stroke:rgb(0,0,0);stroke-width:1;stroke-linecap:round"></path><path d="M405.7326586097745,76.06729306859407L423.5176586934815,61.36668233133403L423.5176586934815,10.638330077070036zM469.7723246335123,15.474673880672407L469.7723246335123,66.20302613493641L429.768289225918,11.291890050529819zM411.983289142211,76.72085304205385L429.768289225918,62.02024230479382L469.7723246335123,66.20302613493641zM429.768289225918,11.291890050529819L429.768289225918,62.02024230479382L411.983289142211,25.99250078778985z" style="fill:rgb(238,238,238); fill-opacity: 0.22"></path><path d="M469.7723246335123,15.474673880672407L451.9873245498053,30.175284617932437" style="fill:none;stroke:rgb(0,0,0);stroke-width:1;stroke-linecap:round"></path><path d="M451.9873245498053,80.90363687219643L469.7723246335123,66.20302613493641L469.7723246335123,15.474673880672407zM429.768289225918,62.02024230479382L411.983289142211,76.72085304205385L411.983289142211,25.99250078778985zM405.7326586097745,25.33894081433007L405.7326586097745,76.06729306859407L423.5176586934815,10.638330077070036zM451.9873245498053,30.175284617932437L469.7723246335123,15.474673880672407L429.768289225918,11.291890050529819zM451.9873245498053,80.90363687219643L411.983289142211,76.72085304205385L469.7723246335123,66.20302613493641z" style="fill:rgb(238,238,238); fill-opacity: 0.22"></path><path d="M405.73265860977455,25.338940814330073L405.73265860977455,76.06729306859408M411.9832891422111,25.992500787789844L411.9832891422111,76.72085304205385M411.9832891422111,76.72085304205385L451.9873245498053,80.90363687219644" style="fill:none;stroke:rgb(0,0,0);stroke-width:1;stroke-linecap:round"></path><path d="M411.983289142211,25.99250078778985L451.9873245498053,30.175284617932437L429.768289225918,11.291890050529819zM451.9873245498053,30.175284617932437L451.9873245498053,80.90363687219643L469.7723246335123,15.474673880672407z" style="fill:rgb(238,238,238); fill-opacity: 0.22"></path><path d="M451.9873245498053,30.175284617932437L451.9873245498053,80.90363687219644" style="fill:none;stroke:rgb(0,0,0);stroke-width:1;stroke-linecap:round"></path><path d="M411.983289142211,76.72085304205385L451.9873245498053,80.90363687219643L451.9873245498053,30.175284617932437zM411.983289142211,25.99250078778985L411.983289142211,76.72085304205385L451.9873245498053,30.175284617932437z" style="fill:rgb(238,238,238); fill-opacity: 0.22"></path><path d="M411.9832891422111,25.992500787789844L451.9873245498053,30.175284617932437" style="fill:none;stroke:rgb(0,0,0);stroke-width:1;stroke-linecap:round"></path></svg>