<svg viewBox="-768 -375 1536 750" width="1536" height="750" style="background-color: rgb(255, 255, 255);" xmlns="http://www.w3.org/2000/svg"><path d="M-142.16440449203114,2.219504733223965L-182.1684398996254,-1.9632790969186278M-182.16843989962538,-52.69163135118262L-182.1684398996254,-1.9632790969186278M-182.1684398996254,-1.9632790969186278L-199.9534399833324,12.737331640341402" style="fill:none;stroke:rgb(0,0,0);stroke-width:1;stroke-linecap:round"></path><path d="M-142.1644044920311,2.2195047332239644L-182.16843989962538,-1.9632790969186285L-182.16843989962538,-52.69163135118263z" style="fill:rgb(238,238,238); fill-opacity: 0.22"></path><path d="M-142.16440449203114,-48.508847521040025L-142.16440449203114,2.219504733223965M-142.16440449203114,2.219504733223965L-159.94940457573816,16.920115470483996M-142.16440449203114,-48.508847521040025L-182.16843989962538,-52.69163135118262M-182.16843989962538,-52.69163135118262L-199.9534399833324,-37.99102061392259M24.1023676707825,19.6042000272541L-135.91377395959455,2.8730647066837425M-135.91377395959452,-47.85528754758025L-135.91377395959455,2.8730647066837425M-135.91377395959455,2.8730647066837425L-153.69877404330154,17.573675443943774" style="fill:none;stroke:rgb(0,0,0);stroke-width:1;stroke-linecap:round"></path><path d="M-142.1644044920311,-48.508847521040025L-142.1644044920311,2.2195047332239644L-182.16843989962538,-52.69163135118263zM-199.9534399833324,12.737331640341402L-182.16843989962538,-1.9632790969186285L-142.1644044920311,2.2195047332239644zM-182.16843989962538,-52.69163135118263L-182.16843989962538,-1.9632790969186285L-199.9534399833324,-37.99102061392259z" style="fill:rgb(238,238,238); fill-opacity: 0.22"></path><path d="M-142.16440449203114,-48.508847521040025L-159.94940457573813,-33.808236783779996M24.10236767078251,-31.12415222700989L-135.91377395959452,-47.85528754758025M-135.91377395959452,-47.85528754758025L-153.69877404330154,-33.15467681032022" style="fill:none;stroke:rgb(0,0,0);stroke-width:1;stroke-linecap:round"></path><path d="M-159.94940457573813,16.920115470483996L-142.1644044920311,2.2195047332239644L-142.1644044920311,-48.508847521040025zM-182.16843989962538,-1.9632790969186285L-199.9534399833324,12.737331640341402L-199.9534399833324,-37.99102061392259zM24.102367670782513,19.604200027254105L-135.91377395959452,2.873064706683742L-135.91377395959452,-47.855287547580254zM-159.94940457573813,-33.808236783779996L-142.1644044920311,-48.508847521040025L-182.16843989962538,-52.69163135118263zM-159.94940457573813,16.920115470483996L-199.9534399833324,12.737331640341402L-142.1644044920311,2.2195047332239644zM-135.91377395959452,-47.855287547580254L-135.91377395959452,2.873064706683742L-153.69877404330154,-33.15467681032022z" style="fill:rgb(238,238,238); fill-opacity: 0.22"></path><path d="M-199.9534399833324,-37.99102061392259L-199.9534399833324,12.737331640341402M-199.9534399833324,12.737331640341402L-159.94940457573816,16.920115470483996" style="fill:none;stroke:rgb(0,0,0);stroke-width:1;stroke-linecap:round"></path><path d="M-153.69877404330154,17.573675443943774L-135.91377395959452,2.873064706683742L24.102367670782513,19.604200027254105zM-199.9534399833324,-37.99102061392259L-159.94940457573813,-33.808236783779996L-182.16843989962538,-52.69163135118263zM-135.91377395959452,2.873064706683742L-153.69877404330154,17.573675443943774L-153.69877404330154,-33.15467681032022zM-159.94940457573813,-33.808236783779996L-159.94940457573813,16.920115470483996L-142.1644044920311,-48.508847521040025z" style="fill:rgb(238,238,238); fill-opacity: 0.22"></path><path d="M-159.94940457573813,-33.808236783779996L-159.94940457573816,16.920115470483996" style="fill:none;stroke:rgb(0,0,0);stroke-width:1;stroke-linecap:round"></path><path d="M-199.9534399833324,12.737331640341402L-159.94940457573813,16.920115470483996L-159.94940457573813,-33.808236783779996zM24.102367670782513,-31.124152227009887L24.102367670782513,19.604200027254105L-135.91377395959452,-47.855287547580254zM-199.9534399833324,-37.99102061392259L-199.9534399833324,12.737331640341402L-159.94940457573813,-33.808236783779996z" style="fill:rgb(238,238,238); fill-opacity: 0.22"></path><path d="M-199.9534399833324,-37.99102061392259L-159.94940457573813,-33.808236783779996M-153.69877404330154,-33.15467681032022L-153.69877404330154,17.573675443943774M-153.69877404330154,17.573675443943774L6.317367587075491,34.30481076451413M24.10236767078251,-31.12415222700989L24.1023676707825,19.6042000272541M24.1023676707825,19.6042000272541L6.317367587075491,34.30481076451413M-153.69877404330154,-33.15467681032022L6.317367587075502,-16.42354148974986" style="fill:none;stroke:rgb(0,0,0);stroke-width:1;stroke-linecap:round"></path><path d="M-153.69877404330154,-33.15467681032022L6.317367587075502,-16.42354148974986L-135.91377395959452,-47.855287547580254zM6.317367587075502,-16.42354148974986L24.102367670782513,-31.124152227009887L-135.91377395959452,-47.855287547580254zM6.317367587075497,34.30481076451414L-153.69877404330154,17.573675443943774L24.102367670782513,19.604200027254105z" style="fill:rgb(238,238,238); fill-opacity: 0.22"></path><path d="M24.10236767078251,-31.12415222700989L6.317367587075502,-16.42354148974986" style="fill:none;stroke:rgb(0,0,0);stroke-width:1;stroke-linecap:round"></path><path d="M6.317367587075497,34.30481076451414L24.102367670782513,19.604200027254105L24.102367670782513,-31.124152227009887zM-153.69877404330154,-33.15467681032022L-153.69877404330154,17.573675443943774L6.317367587075502,-16.42354148974986zM-153.69877404330154,17.573675443943774L6.317367587075497,34.30481076451414L6.317367587075502,-16.42354148974986zM6.317367587075502,-16.42354148974986L6.317367587075497,34.30481076451414L24.102367670782513,-31.124152227009887z" style="fill:rgb(238,238,238); fill-opacity: 0.22"></path><path d="MNaN,NaNLNaN,NaNLNaN,NaNzMNaN,NaNLNaN,NaNLNaN,NaNzMNaN,NaNLNaN,NaNL-138.27919299862023,-8.006519702150133zMNaN,NaNLNaN,NaNL-138.27919299862023,-8.006519702150133zMNaN,NaNLNaN,NaNL-138.27919299862023,-8.006519702150133zMNaN,NaNLNaN,NaNL-138.27919299862023,-8.006519702150133zMNaN,NaNLNaN,NaNLNaN,NaNzMNaN,NaNLNaN,NaNLNaN,NaNzMNaN,NaNLNaN,NaNL11.216252560250165,48.43398848049414zMNaN,NaNLNaN,NaNL11.216252560250165,48.43398848049414zMNaN,NaNLNaN,NaNL11.216252560250165,48.43398848049414zMNaN,NaNLNaN,NaNL11.216252560250165,48.43398848049414zMNaN,NaNLNaN,NaNLNaN,NaNzMNaN,NaNLNaN,NaNLNaN,NaNzMNaN,NaNLNaN,NaNL164.99033662794523,48.11407166893932zMNaN,NaNLNaN,NaNL164.99033662794523,48.11407166893932zMNaN,NaNLNaN,NaNL164.99033662794523,48.11407166893932zMNaN,NaNLNaN,NaNL164.99033662794523,48.11407166893932zMNaN,NaNLNaN,NaNLNaN,NaNzMNaN,NaNLNaN,NaNLNaN,NaNzMNaN,NaNLNaN,NaNL326.39729189715206,-69.17740002873454zMNaN,NaNLNaN,NaNL326.39729189715206,-69.17740002873454zMNaN,NaNLNaN,NaNL326.39729189715206,-69.17740002873454zMNaN,NaNLNaN,NaNL326.39729189715206,-69.17740002873454zMNaN,NaNLNaN,NaNLNaN,NaNzMNaN,NaNLNaN,NaNLNaN,NaNzMNaN,NaNLNaN,NaNL320.35457628737674,-44.536093897867175zMNaN,NaNLNaN,NaNL320.35457628737674,-44.536093897867175zMNaN,NaNLNaN,NaNL320.35457628737674,-44.536093897867175zMNaN,NaNLNaN,NaNL320.35457628737674,-44.536093897867175z" style="fill:rgb(255,187,187); fill-opacity: 0.4"></path><path d="M385.13000741422667,176.94146206814546L345.1259720066324,172.75867823800283M345.1259720066325,-233.06813979610905L345.1259720066324,172.75867823800283M345.1259720066324,172.75867823800283L202.84597133697633,290.36356413608314M385.1300074142267,-228.8853559659665L385.13000741422667,176.94146206814546M385.13000741422667,176.94146206814546L242.85000674457058,294.5463479662257M393.25582710639424,177.79109003364314L391.3806379466632,177.59502204160523M391.3806379466633,-228.2317959925067L391.3806379466632,177.59502204160523M391.3806379466632,177.59502204160523L249.10063727700714,295.1999079396855M393.25582710639424,-228.0357280004688L393.25582710639424,177.79109003364314M393.25582710639424,177.79109003364314L250.9758264367381,295.3959759317234" style="fill:none;stroke:rgb(0,0,0);stroke-width:1;stroke-linecap:round"></path><path d="M385.1300074142266,176.94146206814546L345.1259720066324,172.75867823800286L345.1259720066325,-233.06813979610905zM393.2558271063941,177.79109003364317L391.3806379466632,177.59502204160523L391.3806379466632,-228.2317959925067zM385.13000741422667,-228.8853559659665L385.1300074142266,176.94146206814546L345.1259720066325,-233.06813979610905z" style="fill:rgb(238,238,238); fill-opacity: 0.22"></path><path d="M303.3053413067818,100.04963523053515L223.29727049159328,91.68406757024997M223.29727049159334,-111.22934144680599L223.29727049159328,91.68406757024997M223.29727049159328,91.68406757024997L152.15727015676524,150.4865105192901" style="fill:none;stroke:rgb(0,0,0);stroke-width:1;stroke-linecap:round"></path><path d="M393.25582710639424,-228.03572800046877L393.2558271063941,177.79109003364317L391.3806379466632,-228.2317959925067z" style="fill:rgb(238,238,238); fill-opacity: 0.22"></path><path d="M199.26163987544965,55.00276607978622L39.245498245072625,38.27163075921587M39.24549824507264,-63.185073749312124L39.245498245072625,38.27163075921587M39.245498245072625,38.27163075921587L3.675498077658588,67.67285223373592M303.3053413067819,-102.86377378652082L303.3053413067818,100.04963523053515M303.3053413067818,100.04963523053515L232.16534097195375,158.85207817957527M385.1300074142267,-228.8853559659665L345.1259720066325,-233.06813979610905M345.1259720066325,-233.06813979610905L202.84597133697636,-115.46325389802887" style="fill:none;stroke:rgb(0,0,0);stroke-width:1;stroke-linecap:round"></path><path d="M303.3053413067818,100.04963523053515L223.29727049159328,91.68406757024997L223.29727049159334,-111.229341446806zM202.84597133697633,290.36356413608314L345.1259720066324,172.75867823800286L385.1300074142266,176.94146206814546zM199.26163987544965,55.00276607978622L39.24549824507262,38.27163075921587L39.24549824507263,-63.185073749312124z" style="fill:rgb(238,238,238); fill-opacity: 0.22"></path><path d="M199.2616398754497,-46.45393842874176L39.24549824507264,-63.185073749312124M39.24549824507264,-63.185073749312124L3.6754980776586095,-33.78385227479206M385.1300074142267,-228.8853559659665L242.8500067445706,-111.28047006788626M393.25582710639424,-228.0357280004688L391.3806379466633,-228.2317959925067M391.3806379466633,-228.2317959925067L249.1006372770072,-110.62691009442648M393.25582710639424,-228.0357280004688L250.97582643673815,-110.43084210238855" style="fill:none;stroke:rgb(0,0,0);stroke-width:1;stroke-linecap:round"></path><path d="M249.10063727700714,295.1999079396855L391.3806379466632,177.59502204160523L393.2558271063941,177.79109003364317zM3.6754980776585917,67.67285223373592L39.24549824507262,38.27163075921587L199.26163987544965,55.00276607978622zM39.24549824507263,-63.185073749312124L39.24549824507262,38.27163075921587L3.6754980776586024,-33.78385227479206zM303.3053413067818,-102.86377378652082L303.3053413067818,100.04963523053515L223.29727049159334,-111.229341446806z" style="fill:rgb(238,238,238); fill-opacity: 0.22"></path><path d="M199.2616398754497,-46.45393842874176L199.26163987544965,55.00276607978622M199.26163987544965,55.00276607978622L163.69163970803567,84.4039875543063M303.3053413067819,-102.86377378652082L223.29727049159334,-111.22934144680599M223.29727049159334,-111.22934144680599L152.15727015676526,-52.42689849776588" style="fill:none;stroke:rgb(0,0,0);stroke-width:1;stroke-linecap:round"></path><path d="M199.2616398754497,-46.45393842874176L199.26163987544965,55.00276607978622L39.24549824507263,-63.185073749312124zM152.15727015676524,150.48651051929008L223.29727049159328,91.68406757024997L303.3053413067818,100.04963523053515zM39.24549824507262,38.27163075921587L3.6754980776585917,67.67285223373592L3.6754980776586024,-33.78385227479206z" style="fill:rgb(238,238,238); fill-opacity: 0.22"></path><path d="M6.317367587075502,-16.42354148974986L6.317367587075491,34.30481076451413" style="fill:none;stroke:rgb(0,0,0);stroke-width:1;stroke-linecap:round"></path><path d="M242.85000674457058,294.5463479662257L385.1300074142266,176.94146206814546L385.13000741422667,-228.8853559659665zM250.97582643673815,295.3959759317234L393.2558271063941,177.79109003364317L393.25582710639424,-228.03572800046877z" style="fill:rgb(238,238,238); fill-opacity: 0.22"></path><path d="M303.3053413067819,-102.86377378652082L232.16534097195378,-44.061330837480696M199.2616398754497,-46.45393842874176L163.69163970803567,-17.052716954221697M3.6754980776586095,-33.78385227479206L3.675498077658588,67.67285223373592M3.675498077658588,67.67285223373592L163.69163970803567,84.4039875543063" style="fill:none;stroke:rgb(0,0,0);stroke-width:1;stroke-linecap:round"></path><path d="M163.69163970803564,84.40398755430628L199.26163987544965,55.00276607978622L199.2616398754497,-46.45393842874176zM223.29727049159334,-111.229341446806L223.29727049159328,91.68406757024997L152.15727015676526,-52.42689849776588zM163.69163970803567,-17.052716954221697L199.2616398754497,-46.45393842874176L39.24549824507263,-63.185073749312124zM163.69163970803564,84.40398755430628L3.6754980776585917,67.67285223373592L199.26163987544965,55.00276607978622zM232.16534097195375,158.85207817957527L303.3053413067818,100.04963523053515L303.3053413067818,-102.86377378652082zM345.1259720066325,-233.06813979610905L345.1259720066324,172.75867823800286L202.84597133697636,-115.46325389802884zM3.6754980776586024,-33.78385227479206L163.69163970803567,-17.052716954221697L39.24549824507263,-63.185073749312124zM391.3806379466632,-228.2317959925067L391.3806379466632,177.59502204160523L249.1006372770072,-110.62691009442648z" style="fill:rgb(238,238,238); fill-opacity: 0.22"></path><path d="M3.6754980776586095,-33.78385227479206L163.69163970803567,-17.052716954221697" style="fill:none;stroke:rgb(0,0,0);stroke-width:1;stroke-linecap:round"></path><path d="M3.6754980776586024,-33.78385227479206L3.6754980776585917,67.67285223373592L163.69163970803567,-17.052716954221697zM232.16534097195375,-44.061330837480696L303.3053413067818,-102.86377378652082L223.29727049159334,-111.229341446806zM232.16534097195375,158.85207817957527L152.15727015676524,150.48651051929008L303.3053413067818,100.04963523053515zM163.69163970803567,-17.052716954221697L163.69163970803564,84.40398755430628L199.2616398754497,-46.45393842874176zM223.29727049159328,91.68406757024997L152.15727015676524,150.48651051929008L152.15727015676526,-52.42689849776588zM3.6754980776585917,67.67285223373592L163.69163970803564,84.40398755430628L163.69163970803567,-17.052716954221697z" style="fill:rgb(238,238,238); fill-opacity: 0.22"></path><path d="M163.69163970803567,-17.052716954221697L163.69163970803567,84.4039875543063" style="fill:none;stroke:rgb(0,0,0);stroke-width:1;stroke-linecap:round"></path><path d="M242.8500067445706,-111.28047006788626L385.13000741422667,-228.8853559659665L345.1259720066325,-233.06813979610905zM242.85000674457058,294.5463479662257L202.84597133697633,290.36356413608314L385.1300074142266,176.94146206814546zM250.97582643673817,-110.43084210238854L393.25582710639424,-228.03572800046877L391.3806379466632,-228.2317959925067zM250.97582643673815,295.3959759317234L249.10063727700714,295.1999079396855L393.2558271063941,177.79109003364317z" style="fill:rgb(238,238,238); fill-opacity: 0.22"></path><path d="M152.15727015676526,-52.42689849776588L152.15727015676524,150.4865105192901M152.15727015676524,150.4865105192901L232.16534097195375,158.85207817957527" style="fill:none;stroke:rgb(0,0,0);stroke-width:1;stroke-linecap:round"></path><path d="M232.16534097195375,-44.061330837480696L232.16534097195375,158.85207817957527L303.3053413067818,-102.86377378652082zM152.15727015676526,-52.42689849776588L232.16534097195375,-44.061330837480696L223.29727049159334,-111.229341446806zM345.1259720066324,172.75867823800286L202.84597133697633,290.36356413608314L202.84597133697636,-115.46325389802884zM391.3806379466632,177.59502204160523L249.10063727700714,295.1999079396855L249.1006372770072,-110.62691009442648z" style="fill:rgb(238,238,238); fill-opacity: 0.22"></path><path d="M232.16534097195378,-44.061330837480696L232.16534097195375,158.85207817957527" style="fill:none;stroke:rgb(0,0,0);stroke-width:1;stroke-linecap:round"></path><path d="M152.15727015676524,150.48651051929008L232.16534097195375,158.85207817957527L232.16534097195375,-44.061330837480696zM152.15727015676526,-52.42689849776588L152.15727015676524,150.48651051929008L232.16534097195375,-44.061330837480696z" style="fill:rgb(238,238,238); fill-opacity: 0.22"></path><path d="M152.15727015676526,-52.42689849776588L232.16534097195378,-44.061330837480696" style="fill:none;stroke:rgb(0,0,0);stroke-width:1;stroke-linecap:round"></path><path d="M242.8500067445706,-111.28047006788626L242.85000674457058,294.5463479662257L385.13000741422667,-228.8853559659665zM250.97582643673817,-110.43084210238854L250.97582643673815,295.3959759317234L393.25582710639424,-228.03572800046877z" style="fill:rgb(238,238,238); fill-opacity: 0.22"></path><path d="M202.84597133697636,-115.46325389802887L202.84597133697633,290.36356413608314M202.84597133697633,290.36356413608314L242.85000674457058,294.5463479662257" style="fill:none;stroke:rgb(0,0,0);stroke-width:1;stroke-linecap:round"></path><path d="M202.84597133697636,-115.46325389802884L242.8500067445706,-111.28047006788626L345.1259720066325,-233.06813979610905zM249.1006372770072,-110.62691009442648L250.97582643673817,-110.43084210238854L391.3806379466632,-228.2317959925067z" style="fill:rgb(238,238,238); fill-opacity: 0.22"></path><path d="M242.8500067445706,-111.28047006788626L242.85000674457058,294.5463479662257M249.1006372770072,-110.62691009442648L249.10063727700714,295.1999079396855M249.10063727700714,295.1999079396855L250.9758264367381,295.3959759317234M250.97582643673815,-110.43084210238855L250.9758264367381,295.3959759317234" style="fill:none;stroke:rgb(0,0,0);stroke-width:1;stroke-linecap:round"></path><path d="M202.84597133697633,290.36356413608314L242.85000674457058,294.5463479662257L242.8500067445706,-111.28047006788626zM249.10063727700714,295.1999079396855L250.97582643673815,295.3959759317234L250.97582643673817,-110.43084210238854zM202.84597133697636,-115.46325389802884L202.84597133697633,290.36356413608314L242.8500067445706,-111.28047006788626zM249.1006372770072,-110.62691009442648L249.10063727700714,295.1999079396855L250.97582643673817,-110.43084210238854z" style="fill:rgb(238,238,238); fill-opacity: 0.22"></path><path d="M202.84597133697636,-115.46325389802887L242.8500067445706,-111.28047006788626M249.1006372770072,-110.62691009442648L250.97582643673815,-110.43084210238855" style="fill:none;stroke:rgb(0,0,0);stroke-width:1;stroke-linecap:round"></path></svg>